<?xml version="1.0" standalone="no"?>
<!DOCTYPE svg PUBLIC "-//W3C//DTD SVG 20010904//EN"
 "http://www.w3.org/TR/2001/REC-SVG-20010904/DTD/svg10.dtd">
<svg version="1.0" xmlns="http://www.w3.org/2000/svg"
 width="901.000000pt" height="901.000000pt" viewBox="0 0 901.000000 901.000000"
 preserveAspectRatio="xMidYMid meet">
<metadata>
Created by potrace 1.14, written by Peter Selinger 2001-2017
</metadata>
<g transform="translate(0.000000,901.000000) scale(0.100000,-0.100000)"
fill="#000000" stroke="none">
<path d="M3732 8994 c-12 -8 -27 -12 -34 -8 -8 5 -9 2 -5 -9 3 -9 2 -19 -4
-22 -5 -4 -6 -11 -3 -17 4 -6 2 -8 -4 -4 -6 3 -9 14 -7 24 2 12 -4 18 -18 20
-17 1 -19 -1 -7 -8 13 -8 12 -10 -4 -10 -16 0 -17 -2 -5 -17 13 -17 13 -17 -6
-1 -14 12 -25 14 -35 8 -8 -5 -11 -10 -6 -10 5 0 3 -6 -3 -13 -6 -8 -9 -17 -6
-21 3 -3 0 -2 -6 3 -6 5 -19 7 -28 3 -14 -5 -14 -4 -2 12 10 12 16 14 21 5 5
-7 10 -8 14 -1 3 5 0 12 -7 15 -15 5 -59 -27 -50 -37 4 -3 -1 -6 -11 -6 -10 0
-15 5 -11 13 4 6 0 4 -8 -6 -10 -12 -17 -15 -22 -7 -5 8 -14 6 -31 -4 -28 -19
-38 -20 -27 -3 9 15 16 53 7 45 -3 -3 -7 -14 -8 -25 -2 -10 -8 -18 -14 -18 -6
0 -14 -4 -19 -9 -4 -5 -3 -7 3 -3 6 3 11 0 11 -8 0 -13 -3 -13 -17 0 -21 19
-36 20 -21 1 9 -11 9 -16 0 -22 -7 -4 -9 -3 -6 3 4 6 -1 17 -10 24 -14 12 -15
11 -9 -11 6 -20 5 -22 -4 -8 -6 9 -17 15 -25 11 -10 -3 -14 0 -12 8 2 8 2 11
0 7 -3 -5 -11 -8 -18 -8 -7 0 -16 -6 -18 -12 -4 -10 -6 -10 -6 0 -1 6 -6 12
-12 12 -5 0 -8 -4 -5 -8 2 -4 -4 -8 -15 -8 -10 0 -19 4 -19 8 0 4 -7 4 -17 1
-12 -5 -14 -3 -8 8 7 11 6 12 -7 2 -8 -7 -18 -10 -22 -6 -4 4 -4 -1 0 -11 5
-13 4 -17 -4 -12 -6 3 -13 2 -16 -3 -4 -5 -1 -13 5 -17 8 -5 9 -3 4 6 -5 9 -4
11 4 6 9 -6 9 -11 1 -21 -7 -8 -9 -18 -6 -23 4 -7 -27 -8 -44 -2 -3 1 -8 2
-12 1 -5 0 -8 3 -8 8 0 15 27 20 40 8 10 -10 10 -8 2 9 -6 12 -10 23 -9 25 1
2 -3 -2 -10 -10 -14 -16 -48 -7 -37 10 4 8 3 9 -4 5 -6 -4 -8 -14 -5 -23 4
-11 3 -14 -5 -9 -7 4 -12 15 -12 24 0 15 -2 15 -10 2 -5 -8 -10 -10 -10 -5 0
6 -11 15 -25 22 -14 6 -23 7 -19 2 3 -5 1 -9 -4 -9 -6 0 -12 6 -15 14 -3 9
-15 12 -31 9 -16 -3 -26 -1 -26 6 0 7 -5 9 -10 6 -6 -4 -17 -1 -25 5 -11 9
-15 9 -15 1 0 -7 -6 -9 -17 -4 -28 13 -63 9 -73 -7 -5 -8 -10 -10 -10 -4 0 16
-38 25 -44 10 -3 -7 -5 -6 -5 3 -1 10 -6 10 -27 -4 -20 -13 -28 -14 -40 -4
-11 9 -14 8 -14 -6 0 -10 -3 -15 -7 -12 -3 4 -13 1 -21 -6 -11 -8 -13 -8 -9 0
5 8 1 8 -17 0 -13 -7 -22 -15 -20 -19 5 -7 -10 -12 -28 -9 -5 0 -8 -4 -8 -10
0 -5 -4 -7 -10 -4 -5 3 -10 -1 -10 -10 0 -10 -5 -13 -12 -9 -7 5 -9 2 -5 -8 4
-12 0 -15 -18 -14 -15 2 -22 -1 -18 -10 2 -7 -5 -15 -16 -19 -13 -4 -18 -11
-14 -22 4 -10 2 -14 -5 -9 -6 3 -13 -3 -17 -14 -3 -11 -12 -20 -18 -20 -7 0
-6 -4 3 -10 13 -8 13 -10 -2 -10 -9 0 -20 -5 -24 -12 -4 -7 -3 -8 4 -4 7 4 12
2 12 -3 0 -6 -6 -11 -13 -11 -7 0 -18 -9 -25 -21 -8 -12 -9 -18 -3 -15 7 5 8
1 5 -9 -4 -9 -12 -14 -19 -11 -8 3 -11 -2 -8 -15 4 -13 0 -19 -11 -19 -10 0
-14 -4 -11 -10 3 -5 1 -10 -5 -10 -6 0 -8 -4 -5 -10 3 -5 2 -10 -4 -10 -6 0
-8 -6 -5 -14 3 -8 0 -25 -7 -38 -11 -21 -11 -22 5 -9 15 12 16 11 8 -9 -5 -13
-17 -25 -27 -26 -10 -1 -22 -9 -26 -16 -8 -12 -13 -4 -10 16 1 5 -4 4 -12 -2
-8 -7 -17 -8 -21 -4 -4 4 -6 0 -4 -8 2 -8 -3 -15 -9 -16 -7 -1 -16 -2 -19 -3
-4 0 0 -9 7 -18 9 -11 10 -14 2 -9 -7 4 -21 2 -30 -4 -16 -11 -16 -11 -1 -6
10 3 20 0 24 -6 4 -6 3 -8 -3 -5 -6 4 -17 -1 -24 -10 -10 -11 -10 -14 -2 -9 9
5 11 2 7 -9 -4 -9 -13 -14 -20 -11 -8 3 -11 0 -7 -9 3 -8 10 -12 16 -8 6 4 7
1 3 -6 -5 -7 -14 -10 -21 -7 -8 3 -16 -3 -18 -12 -4 -15 -5 -15 -6 1 0 10 -6
15 -11 12 -6 -4 -7 -12 -4 -18 4 -7 4 -9 -1 -5 -4 4 -14 3 -22 -4 -11 -9 -12
-7 -7 8 5 18 5 18 -9 2 -11 -14 -16 -15 -27 -5 -10 10 -10 8 0 -12 7 -14 8
-21 1 -17 -13 8 -30 -24 -23 -44 5 -13 3 -13 -12 -1 -14 12 -16 12 -9 -4 5
-15 3 -17 -12 -12 -16 7 -16 5 -4 -10 11 -14 12 -15 0 -9 -8 5 -17 3 -22 -5
-8 -12 -11 -12 -19 1 -8 13 -10 13 -10 -1 0 -9 -7 -22 -15 -29 -13 -11 -15
-10 -9 6 3 10 -4 4 -16 -13 -12 -18 -29 -33 -37 -33 -8 0 -11 -4 -8 -10 3 -5
-1 -10 -9 -10 -9 0 -16 -6 -16 -14 0 -8 -10 -16 -22 -18 -14 -2 -23 -10 -22
-20 1 -10 -4 -14 -12 -11 -8 3 -14 0 -14 -7 0 -6 -5 -8 -10 -5 -6 3 -13 0 -16
-9 -3 -9 -12 -12 -21 -9 -10 4 -14 2 -10 -4 8 -13 -18 -43 -38 -43 -8 0 -21
-9 -29 -21 -8 -12 -19 -18 -25 -14 -7 3 -10 3 -9 -2 4 -12 -39 -52 -48 -45 -4
4 -4 -1 -1 -10 4 -12 2 -15 -9 -11 -12 5 -19 -7 -15 -30 1 -4 -8 -3 -19 3 -11
6 -20 7 -19 3 3 -19 -2 -34 -9 -29 -5 3 -17 -7 -28 -21 -22 -30 -54 -66 -39
-44 9 12 7 12 -12 1 -12 -8 -19 -18 -17 -22 3 -4 0 -8 -6 -8 -6 0 -8 -5 -5
-10 4 -6 1 -9 -7 -8 -7 2 -12 -2 -11 -9 2 -7 -4 -10 -12 -7 -10 4 -15 0 -15
-11 0 -9 -4 -14 -9 -11 -9 6 -26 -22 -22 -37 1 -5 -3 -6 -8 -3 -5 3 -11 -1
-15 -9 -3 -8 -12 -15 -21 -15 -8 0 -14 -3 -14 -7 3 -18 -2 -34 -8 -30 -8 5
-34 -18 -29 -24 2 -2 -8 -15 -22 -29 -14 -14 -20 -17 -12 -7 7 9 11 20 8 23
-3 2 -13 -11 -22 -31 -10 -20 -24 -35 -34 -35 -15 0 -15 -2 -2 -10 13 -9 7
-14 -12 -11 -5 0 -8 -3 -8 -8 0 -5 -6 -16 -13 -23 -7 -7 -18 -24 -25 -38 l-12
-25 5 25 c5 21 4 22 -5 8 -6 -10 -10 -19 -8 -20 6 -7 -48 -54 -57 -49 -5 3 -4
-2 3 -11 10 -13 9 -16 -9 -21 -12 -3 -18 -10 -14 -16 3 -6 -1 -14 -9 -17 -9
-3 -14 -10 -11 -14 3 -5 -3 -13 -12 -19 -10 -6 -14 -11 -9 -11 5 0 -7 -14 -25
-31 -19 -17 -28 -28 -20 -23 9 5 12 3 7 -4 -4 -7 -14 -12 -22 -12 -8 0 -12 -4
-9 -10 3 -5 -1 -10 -10 -10 -11 0 -15 -5 -11 -15 3 -8 1 -15 -5 -15 -6 0 -7
-4 -4 -10 3 -5 1 -10 -4 -10 -6 0 -10 -6 -8 -12 1 -7 -3 -12 -10 -11 -7 2 -10
-4 -7 -12 4 -8 1 -15 -4 -15 -6 0 -9 -9 -7 -21 4 -18 2 -19 -13 -8 -9 7 -14
10 -10 5 4 -5 2 -18 -4 -30 -7 -11 -11 -24 -10 -28 1 -4 -4 -5 -12 -2 -8 3
-17 0 -22 -7 -4 -8 -3 -10 4 -5 7 4 12 2 12 -3 0 -6 -6 -11 -13 -11 -7 0 -21
-10 -31 -22 -16 -19 -16 -20 -2 -15 15 6 14 3 -3 -19 -11 -14 -17 -32 -14 -41
5 -13 2 -15 -11 -10 -10 4 -15 3 -11 -3 3 -6 0 -10 -7 -10 -10 0 -10 -2 1 -9
11 -7 11 -9 0 -13 -12 -4 -11 -8 1 -24 14 -17 13 -18 -1 -7 -20 16 -33 5 -17
-14 9 -11 8 -13 -1 -11 -8 2 -15 -6 -17 -17 -1 -11 -9 -24 -17 -30 -7 -5 -12
-15 -10 -22 2 -6 -1 -15 -8 -19 -8 -5 -9 -3 -4 6 5 9 4 11 -4 6 -6 -4 -9 -12
-5 -17 3 -6 -2 -17 -12 -25 -18 -15 -18 -15 0 -10 16 6 17 4 6 -9 -7 -8 -16
-12 -21 -10 -4 3 -6 -4 -4 -17 3 -12 1 -25 -3 -28 -4 -3 -12 -15 -19 -26 -9
-17 -9 -24 0 -33 9 -9 8 -11 -7 -5 -16 6 -18 4 -13 -10 4 -9 3 -15 -1 -12 -4
2 -12 -7 -19 -20 -8 -18 -8 -23 0 -18 7 3 1 -4 -13 -16 -14 -12 -20 -19 -13
-16 6 4 14 2 17 -3 4 -5 -5 -8 -18 -7 -17 2 -23 -1 -19 -10 3 -8 10 -11 17 -7
7 4 7 2 -1 -7 -10 -11 -15 -11 -30 1 -14 11 -14 9 2 -10 11 -14 15 -21 8 -18
-16 10 -27 -11 -14 -27 9 -11 8 -14 -5 -12 -9 0 -18 -7 -19 -17 -2 -10 1 -14
8 -10 7 4 8 0 4 -11 -4 -10 -7 -20 -7 -22 0 -3 -5 -2 -11 2 -8 5 -8 1 0 -14 8
-15 7 -23 -3 -31 -7 -6 -17 -7 -22 -3 -4 4 -3 0 3 -8 7 -9 8 -21 4 -28 -4 -7
-7 -26 -6 -42 1 -23 -1 -27 -11 -19 -10 8 -12 6 -9 -12 3 -13 -1 -26 -7 -30
-9 -6 -8 -12 2 -24 7 -9 9 -15 4 -14 -22 4 -33 -2 -28 -16 4 -8 1 -15 -6 -15
-6 0 -10 -10 -8 -22 2 -14 -2 -22 -9 -21 -7 2 -13 -6 -13 -18 0 -13 -4 -18
-12 -13 -9 5 -8 2 1 -9 12 -15 12 -17 -1 -12 -10 4 -14 -2 -14 -19 0 -14 4
-22 8 -20 4 3 8 0 8 -5 0 -6 -5 -11 -12 -11 -6 0 -3 -7 8 -16 10 -8 14 -13 7
-10 -6 4 -14 2 -18 -4 -3 -5 -1 -10 5 -10 6 0 8 -5 5 -10 -4 -6 -9 -8 -13 -6
-4 2 -7 -16 -6 -40 1 -24 -2 -44 -6 -44 -4 0 -10 -9 -13 -21 -5 -17 -3 -18 10
-7 15 12 15 11 4 -10 -6 -12 -9 -27 -6 -32 3 -5 0 -7 -8 -4 -9 3 -13 -2 -12
-18 1 -13 -2 -29 -8 -35 -6 -9 -5 -13 4 -13 11 0 11 -2 1 -8 -7 -5 -12 -17
-11 -28 4 -35 -1 -55 -10 -49 -5 3 -13 0 -17 -6 -4 -8 -3 -9 4 -5 7 4 12 1 12
-8 0 -8 -5 -18 -12 -22 -7 -5 -8 -3 -3 6 5 9 4 11 -4 6 -9 -6 -9 -11 0 -22 9
-11 9 -14 -1 -14 -9 0 -9 -4 1 -17 10 -12 11 -15 1 -9 -9 6 -11 1 -8 -18 2
-14 -1 -27 -7 -30 -8 -3 -7 -8 3 -15 10 -7 11 -11 3 -11 -7 0 -13 -9 -13 -21
0 -13 4 -18 13 -14 6 4 3 -1 -7 -9 -11 -9 -14 -16 -8 -16 7 0 2 -10 -9 -21
-17 -17 -19 -23 -8 -31 10 -7 8 -8 -9 -5 -19 5 -21 3 -11 -9 6 -7 16 -11 23
-7 6 3 8 3 4 -2 -4 -4 -3 -14 4 -22 9 -11 8 -13 -3 -11 -8 2 -13 -3 -12 -9 2
-7 -2 -13 -7 -13 -13 0 -13 13 1 27 7 7 6 12 -4 16 -12 5 -15 -68 -16 -513 -1
-484 0 -520 16 -530 17 -11 17 -11 1 -6 -10 3 -18 1 -18 -4 0 -6 5 -10 11 -10
6 0 7 -5 2 -12 -10 -18 -12 -58 -1 -64 4 -3 8 -10 8 -15 0 -6 -5 -7 -11 -3 -8
5 -8 1 0 -14 13 -24 14 -35 4 -29 -5 3 -9 -7 -10 -21 -1 -27 -1 -27 11 -4 7
12 16 19 20 15 5 -4 4 2 -3 14 -6 12 -7 24 -3 27 5 3 9 0 10 -7 0 -7 3 -24 6
-40 4 -16 2 -27 -4 -27 -6 0 -8 5 -4 12 4 7 3 8 -4 4 -17 -10 -15 -14 16 -30
15 -8 21 -15 15 -16 -7 0 -13 -5 -13 -11 0 -5 4 -8 9 -5 5 3 12 -1 15 -10 4
-10 2 -13 -7 -9 -6 4 -3 -1 7 -9 12 -9 14 -16 7 -16 -9 0 -8 -5 3 -16 20 -20
21 -30 1 -14 -13 11 -14 10 -9 -4 3 -9 11 -16 16 -16 6 0 5 -6 -2 -15 -10 -12
-9 -16 4 -21 12 -5 14 -10 6 -19 -8 -10 -5 -17 12 -29 18 -13 19 -16 5 -16 -9
0 -17 -5 -17 -11 0 -5 4 -8 9 -4 5 3 12 1 16 -5 3 -5 0 -10 -7 -10 -9 0 -10
-2 -2 -8 7 -4 13 -20 15 -37 2 -16 7 -35 11 -41 4 -6 9 -30 10 -53 1 -23 5
-44 9 -47 4 -2 6 -13 4 -24 -3 -14 1 -17 12 -13 13 5 13 3 4 -15 -11 -20 -8
-26 10 -24 3 1 6 -5 6 -13 0 -8 -4 -12 -9 -9 -4 3 -5 -2 -2 -10 3 -9 11 -16
16 -16 6 0 4 -8 -3 -17 -12 -14 -12 -16 0 -8 11 6 13 4 8 -8 -3 -9 -1 -19 5
-23 7 -5 8 -2 3 6 -5 9 -4 11 3 6 9 -5 9 -13 1 -28 -8 -15 -8 -23 1 -32 8 -8
10 -6 5 9 -6 16 -5 17 4 5 7 -11 5 -20 -7 -35 -15 -17 -15 -18 -1 -7 14 10 18
10 23 -3 3 -9 2 -14 -2 -11 -5 3 -9 -1 -9 -9 0 -8 4 -12 9 -9 4 3 8 -4 8 -15
0 -12 5 -21 10 -21 6 0 10 -5 10 -11 0 -5 -4 -8 -8 -5 -17 11 -8 -26 12 -47
12 -13 21 -36 21 -54 0 -17 3 -29 8 -26 4 2 7 -3 7 -12 0 -9 4 -13 10 -10 5 3
10 1 10 -4 0 -6 -6 -11 -12 -11 -9 0 -8 -3 2 -9 8 -6 19 -7 25 -5 5 3 1 -2 -9
-10 -20 -16 -20 -16 0 -16 16 0 17 -2 4 -10 -13 -8 -13 -10 2 -10 12 0 15 -5
11 -17 -4 -11 -3 -14 5 -9 7 4 12 1 12 -9 0 -10 5 -13 12 -9 8 5 8 1 -2 -12
-8 -10 -11 -16 -6 -12 9 8 40 -19 42 -36 0 -6 2 -17 2 -23 1 -7 10 -13 20 -13
15 0 15 -2 2 -11 -11 -8 -12 -12 -2 -16 6 -2 12 -9 12 -14 0 -6 -6 -7 -12 -4
-7 4 -6 1 2 -7 8 -7 15 -20 15 -28 0 -8 7 -15 15 -14 9 1 17 -8 17 -19 1 -11
9 -24 17 -29 9 -5 12 -16 8 -30 -4 -16 -2 -19 9 -13 11 7 11 5 -1 -11 -8 -10
-10 -16 -6 -12 5 4 15 0 22 -10 10 -14 10 -21 -3 -42 -15 -23 -15 -24 0 -11
15 12 17 11 17 -3 0 -11 4 -14 13 -10 7 5 6 0 -3 -11 -9 -11 -10 -16 -2 -11 8
5 12 0 12 -13 0 -13 7 -21 18 -21 14 0 15 -2 2 -10 -12 -8 -12 -10 5 -10 17 0
17 -2 5 -10 -13 -9 -13 -10 0 -11 8 -1 19 -1 23 0 5 1 6 -8 2 -19 -5 -15 -2
-20 12 -21 16 0 16 -1 -2 -9 -18 -8 -19 -9 -1 -9 12 -1 16 -6 13 -15 -4 -10
-1 -13 8 -10 10 4 13 0 10 -15 -2 -14 1 -21 11 -21 8 0 14 -5 14 -11 0 -5 6
-7 12 -3 10 6 10 5 1 -7 -13 -16 0 -39 22 -39 5 0 3 5 -5 11 -13 9 -13 10 0 6
8 -2 14 -12 12 -22 -2 -9 1 -14 6 -11 6 3 13 -1 16 -10 4 -10 2 -13 -7 -9 -6
4 0 -3 15 -15 26 -20 30 -58 4 -43 -7 4 -7 1 1 -9 7 -8 10 -18 7 -21 -3 -3 8
-4 25 -2 17 2 31 -1 31 -6 0 -6 -5 -7 -12 -3 -8 5 -9 2 -5 -9 4 -10 -1 -20
-11 -27 -15 -8 -14 -9 5 -7 12 2 26 7 30 12 5 4 2 5 -6 0 -10 -6 -12 -4 -6 4
10 18 27 -2 19 -22 -3 -9 -11 -14 -17 -10 -6 4 -7 1 -3 -6 6 -9 13 -8 29 6 12
9 16 11 9 3 -6 -8 -12 -21 -12 -29 1 -13 3 -13 14 2 9 12 16 14 21 8 3 -6 1
-11 -4 -11 -6 0 -11 -9 -11 -20 0 -18 11 -25 34 -21 5 1 6 -5 2 -14 -3 -9 1
-23 9 -32 8 -8 12 -20 8 -26 -4 -7 1 -6 11 2 15 13 17 12 13 -10 -4 -19 -1
-25 15 -25 18 0 18 1 2 13 -15 11 -15 12 4 10 11 0 20 -4 20 -7 0 -3 1 -7 2
-10 7 -19 7 -39 -1 -34 -5 3 -7 9 -4 14 3 4 -4 6 -15 3 -19 -5 -19 -6 6 -19
14 -8 31 -11 37 -7 6 3 7 1 3 -5 -4 -7 -3 -12 1 -12 5 0 23 -13 41 -30 18 -16
30 -30 26 -30 -4 0 -18 9 -30 21 -17 16 -24 18 -30 7 -4 -7 -4 -10 1 -6 11 11
36 -12 28 -25 -3 -6 -1 -7 5 -3 7 4 12 2 12 -4 0 -6 5 -8 11 -4 7 4 9 0 5 -14
-4 -11 -3 -23 2 -26 6 -3 9 1 8 9 0 7 4 13 9 12 6 -1 9 -7 7 -13 -1 -6 6 -18
15 -25 16 -13 17 -12 5 3 -9 11 -10 18 -2 23 6 4 9 1 8 -6 -2 -7 2 -13 9 -14
6 0 15 -4 20 -9 4 -5 3 -6 -3 -3 -7 4 -14 0 -17 -8 -4 -10 -1 -12 10 -8 13 5
14 3 3 -17 -7 -12 -8 -20 -2 -16 5 3 15 -1 22 -9 7 -8 17 -12 24 -8 6 4 5 0
-2 -9 -11 -14 -10 -18 5 -26 10 -5 23 -8 29 -5 6 2 16 -8 22 -22 6 -14 16 -25
22 -25 6 0 8 -4 5 -10 -4 -6 1 -7 11 -3 13 5 15 2 9 -15 -4 -14 -2 -22 5 -22
6 0 9 4 5 9 -3 5 -2 12 3 15 7 4 11 -9 14 -51 1 -7 5 -10 9 -7 5 2 5 12 2 22
-6 15 -5 15 12 -1 14 -14 15 -21 6 -27 -10 -5 -9 -8 2 -13 7 -3 20 -1 27 3 17
10 26 5 41 -22 8 -14 8 -18 0 -14 -7 5 -9 1 -5 -9 5 -11 10 -13 19 -5 10 8 15
8 21 -1 4 -8 3 -9 -4 -5 -7 4 -12 2 -12 -3 0 -10 22 -16 43 -12 5 1 6 -3 2 -8
-3 -6 -13 -8 -23 -5 -14 5 -14 4 -3 -4 8 -6 20 -8 28 -5 7 3 13 0 13 -7 0 -10
3 -10 15 0 13 11 14 10 9 -4 -3 -9 -11 -16 -17 -16 -6 0 -8 -3 -5 -6 4 -3 18
2 33 12 14 9 25 13 23 8 -1 -5 5 -23 15 -40 9 -17 13 -35 9 -39 -4 -5 -1 -5 6
-1 7 4 10 12 7 17 -3 5 1 6 10 3 12 -5 13 -10 6 -17 -14 -14 -14 -27 0 -27 5
0 7 5 4 10 -3 6 -2 10 4 10 5 0 15 -8 21 -18 9 -14 10 -13 5 8 -5 19 -4 22 4
10 6 -8 11 -11 11 -6 0 5 8 2 18 -7 10 -10 22 -14 26 -10 4 5 6 1 4 -7 -2 -10
4 -14 17 -12 16 2 17 1 5 -7 -12 -9 -13 -11 -1 -11 8 0 11 -3 8 -6 -4 -4 -12
-2 -19 4 -9 7 -20 7 -36 -2 -21 -11 -17 -13 36 -12 33 1 60 -1 59 -4 -1 -3 4
-15 11 -26 6 -12 9 -24 6 -27 -3 -3 3 -4 13 -3 11 0 18 -6 18 -16 0 -9 4 -20
9 -25 5 -4 7 -3 3 2 -3 6 1 18 8 28 11 16 13 16 19 2 3 -9 2 -13 -4 -10 -6 3
-7 -1 -4 -10 5 -12 10 -13 17 -6 18 18 31 12 16 -6 -10 -11 -10 -14 -2 -9 7 4
13 2 13 -3 0 -6 5 -11 11 -11 5 0 7 6 3 13 -4 6 2 3 14 -7 21 -18 21 -20 5
-40 -17 -20 -17 -20 0 -7 9 7 17 10 18 5 0 -5 4 0 9 11 7 15 9 16 9 4 1 -9 8
-22 16 -29 8 -7 15 -18 15 -24 0 -6 -5 -4 -10 4 -5 8 -10 10 -10 4 0 -18 26
-35 43 -28 8 3 18 0 22 -5 3 -6 11 -9 16 -5 5 3 6 10 3 16 -4 7 -2 8 5 4 6 -4
9 -12 6 -17 -4 -5 1 -12 11 -16 15 -6 15 -7 -2 -21 -18 -13 -18 -14 4 -7 22 6
23 5 12 -17 l-11 -23 20 23 c24 28 36 7 12 -23 -15 -18 -15 -19 2 -6 14 11 17
11 17 0 0 -11 2 -11 10 1 6 10 10 11 10 3 0 -7 12 -13 26 -13 14 0 23 -4 19
-10 -9 -14 8 -12 25 3 12 10 12 9 1 -6 -12 -15 -11 -17 10 -15 14 2 23 -2 22
-9 -1 -6 4 -16 12 -23 7 -6 11 -19 8 -28 -5 -14 -3 -15 7 -5 10 10 11 15 1 27
-8 10 -9 16 -1 21 6 4 9 1 8 -7 -2 -8 6 -13 19 -12 15 1 20 -3 16 -13 -5 -12
-7 -12 -14 -1 -6 9 -9 9 -9 1 0 -6 5 -15 10 -18 6 -4 8 -10 6 -14 -8 -12 27
-10 43 3 12 9 13 8 8 -6 -3 -10 -1 -20 5 -24 7 -4 8 -3 4 4 -5 8 0 12 13 12
12 0 21 -6 21 -14 0 -20 17 -29 26 -15 4 7 3 9 -3 6 -5 -3 -10 0 -10 7 0 8 6
12 14 9 7 -3 13 -13 13 -22 0 -28 11 -32 29 -9 17 20 17 20 15 -11 -2 -26 0
-30 12 -20 17 14 19 23 2 13 -7 -4 -8 -3 -4 4 12 19 28 14 21 -7 -4 -15 -1
-18 20 -16 14 2 28 -2 32 -7 3 -6 1 -8 -5 -4 -6 3 -13 3 -16 -2 -2 -4 6 -8 19
-8 13 0 21 4 19 8 -3 4 0 8 5 8 6 0 11 -9 11 -21 0 -11 5 -17 10 -14 6 4 8 12
4 18 -3 7 3 1 15 -13 11 -14 25 -25 31 -25 6 0 15 -7 20 -15 5 -8 10 -10 10
-4 0 5 -5 15 -12 22 -9 9 -9 15 1 25 9 7 11 7 8 1 -12 -22 16 -59 42 -56 13 2
21 0 18 -5 -3 -4 17 -19 43 -32 27 -14 46 -29 43 -34 -4 -6 -1 -7 7 -2 10 6 9
11 -5 22 -11 7 -14 13 -7 13 6 0 18 -10 26 -22 9 -12 16 -17 16 -10 0 15 22
11 36 -7 6 -8 18 -11 28 -8 14 6 16 3 11 -16 -3 -12 -3 -17 2 -12 11 13 33 17
33 6 0 -5 7 -11 14 -14 11 -4 13 -1 9 10 -4 11 -2 14 5 9 7 -4 12 -14 12 -22
0 -8 5 -12 10 -9 6 4 8 11 5 16 -3 5 1 6 9 3 9 -3 13 -11 9 -18 -5 -7 -2 -7 8
1 12 10 20 9 36 -2 11 -8 23 -11 27 -8 3 3 15 -2 25 -11 12 -11 25 -15 33 -10
7 4 10 4 6 -1 -9 -10 10 -35 26 -35 6 0 4 5 -4 10 -9 6 -11 12 -5 17 6 5 9 7
8 4 -1 -2 5 -10 14 -19 12 -12 19 -13 34 -4 12 8 20 8 24 2 4 -6 1 -9 -6 -8
-6 2 -13 -2 -16 -8 -2 -6 7 -10 19 -10 14 1 22 -4 20 -12 -1 -8 2 -11 8 -7 6
3 8 10 6 14 -3 4 1 8 9 8 8 0 12 -4 10 -8 -7 -11 26 -20 39 -11 14 11 47 12
40 1 -2 -5 -12 -6 -22 -3 -13 5 -14 4 -3 -4 7 -5 22 -7 32 -5 11 3 19 0 19 -7
0 -6 6 -10 13 -7 6 2 20 0 31 -5 13 -7 16 -7 12 1 -5 7 -1 9 8 5 10 -4 16 -1
16 7 1 8 7 3 15 -11 8 -14 14 -19 15 -12 0 6 5 12 10 12 6 0 10 -6 8 -12 -2
-7 2 -13 7 -13 5 0 9 7 8 15 -2 8 3 5 9 -8 9 -18 18 -23 45 -20 19 1 37 -2 41
-8 18 -28 122 -48 122 -23 0 7 3 9 7 6 3 -4 -2 -17 -13 -29 -10 -13 -12 -18
-5 -11 7 6 20 9 27 6 10 -4 13 0 8 13 -5 18 -4 17 10 -1 14 -16 20 -17 35 -8
15 9 23 8 39 -7 15 -14 22 -16 25 -7 4 8 6 8 6 -2 1 -11 4 -11 18 0 9 8 14 10
11 4 -3 -5 1 -17 10 -25 14 -13 15 -12 10 2 -4 10 -1 19 7 22 9 3 12 0 8 -10
-4 -10 0 -12 11 -8 9 3 16 1 16 -5 0 -6 8 -11 18 -11 14 0 15 2 2 10 -9 6 -10
10 -3 10 6 0 14 -4 18 -9 3 -6 146 -10 347 -10 311 0 342 1 355 17 12 16 13
16 7 0 -4 -13 0 -17 18 -16 12 1 29 6 37 12 10 7 13 7 9 1 -4 -6 2 -12 13 -12
16 -2 18 1 9 12 -9 11 -7 12 12 8 13 -4 26 -10 29 -15 3 -6 9 -2 12 7 4 9 3
13 -3 10 -6 -3 -10 -1 -10 4 0 14 17 14 25 1 4 -7 12 -7 18 -2 7 4 31 7 54 6
34 -1 41 1 37 15 -3 9 2 5 10 -9 14 -22 15 -23 16 -5 0 15 7 20 30 21 18 1 27
-3 24 -10 -3 -6 2 -2 10 8 9 11 16 14 16 7 0 -7 5 -9 10 -6 7 4 6 14 -1 28
-11 22 -11 22 10 -1 12 -12 19 -27 16 -32 -15 -24 4 -7 21 18 17 26 17 27 -2
13 -18 -14 -18 -14 -1 5 15 16 19 17 27 4 5 -8 12 -11 16 -7 4 3 1 14 -7 24
-8 9 -9 14 -2 10 7 -4 17 0 23 10 11 17 11 17 6 1 -6 -22 29 -45 40 -26 5 7 3
8 -6 3 -9 -6 -11 -4 -5 4 4 7 18 11 31 8 13 -2 24 0 24 5 0 5 5 6 12 2 7 -4 8
-3 4 4 -11 18 10 14 28 -4 9 -8 16 -11 16 -5 0 5 9 8 19 6 11 -2 25 3 31 11 7
7 17 11 22 8 5 -3 4 3 -4 15 -7 12 -16 21 -20 21 -5 0 0 8 10 18 10 11 20 14
24 8 4 -6 15 -3 29 9 12 11 19 14 15 7 -4 -6 -2 -12 3 -12 10 0 15 14 12 33
-1 5 3 6 9 2 6 -3 8 -10 5 -15 -3 -5 3 -8 14 -7 14 1 17 5 10 13 -7 8 -6 15 2
20 8 5 9 3 4 -6 -5 -8 -3 -11 6 -8 8 3 13 11 11 17 -1 7 2 10 8 6 6 -3 8 -10
6 -14 -3 -4 1 -8 9 -8 8 0 12 4 9 9 -3 4 2 8 10 8 9 0 16 -4 16 -10 0 -5 5
-10 12 -10 9 0 9 3 0 12 -7 7 -12 16 -12 22 0 5 3 6 7 3 3 -4 13 -1 22 6 14
11 14 10 2 -5 -8 -11 -9 -18 -3 -18 6 0 14 5 17 10 3 6 11 10 17 10 6 0 5 -7
-3 -17 -12 -16 -12 -17 2 -6 9 7 18 11 21 8 3 -3 11 3 19 12 13 16 12 17 -2 5
-14 -10 -18 -10 -22 1 -3 9 4 13 22 12 14 -1 35 3 46 9 18 8 19 7 6 -7 -9 -12
-10 -17 -2 -17 6 0 14 6 17 14 3 8 13 12 25 9 10 -3 16 -9 13 -14 -3 -5 0 -9
5 -9 6 0 11 5 11 11 0 6 6 9 14 6 7 -3 19 0 25 6 9 9 14 8 21 -3 7 -10 10 -11
10 -2 0 6 6 11 13 10 7 -2 12 6 11 19 -1 13 3 20 7 17 5 -3 9 1 9 8 1 7 8 2
16 -12 14 -23 15 -23 11 -3 -3 12 -2 22 2 21 19 -2 31 3 26 12 -4 6 -1 9 7 8
7 -2 12 4 10 12 -2 8 0 11 4 7 12 -12 14 -38 2 -31 -7 5 -8 2 -3 -6 6 -10 11
-9 22 5 7 11 13 15 13 11 0 -5 6 -3 14 3 7 6 21 9 30 5 9 -4 16 -1 16 6 0 7 6
10 13 7 8 -3 14 1 14 8 0 10 -5 11 -19 4 -10 -5 -18 -7 -18 -3 0 3 -11 -1 -25
-10 -26 -17 -34 -13 -12 7 6 7 21 13 32 14 40 4 56 10 77 27 18 16 20 16 15 2
-8 -19 4 -21 22 -3 10 10 11 9 8 -3 -2 -8 -2 -12 0 -7 3 4 9 5 14 1 5 -3 16 2
25 10 8 9 12 16 7 16 -5 0 -14 -5 -21 -12 -8 -8 -12 -8 -12 -1 0 14 29 25 43
16 6 -4 8 0 4 10 -9 24 0 21 14 -4 8 -15 8 -19 0 -15 -6 4 -11 2 -11 -3 0 -14
13 -14 28 1 8 8 15 8 29 -3 17 -13 17 -13 4 4 -8 10 -21 15 -30 12 -8 -3 -12
-3 -8 1 4 4 2 13 -4 20 -7 8 -6 14 2 20 8 4 9 3 5 -4 -4 -7 7 -18 26 -28 29
-15 31 -15 20 -1 -12 14 -11 15 17 7 19 -5 29 -5 26 1 -5 8 7 13 27 11 3 -1 8
4 11 11 3 8 -3 14 -14 14 -12 1 -17 -3 -13 -9 4 -7 2 -8 -4 -4 -6 4 -9 13 -5
22 4 11 9 12 19 3 11 -9 14 -8 14 2 0 9 3 10 8 4 9 -12 54 -16 46 -4 -3 5 -9
7 -14 4 -5 -3 -12 0 -16 6 -4 7 -3 9 4 5 6 -3 13 -2 17 4 3 5 0 10 -7 10 -10
0 -10 2 1 9 8 5 21 7 29 3 11 -4 13 -1 7 8 -5 9 -4 11 4 6 6 -4 14 -1 17 8 3
9 12 12 22 8 15 -5 15 -4 3 11 -18 22 -7 22 15 0 17 -17 17 -17 12 5 -4 15 -2
22 8 22 8 0 14 6 14 13 0 8 3 7 9 -3 6 -8 7 -18 5 -22 -3 -4 2 -5 11 -1 9 3
13 9 8 12 -4 3 -9 12 -11 20 -3 12 0 12 12 2 11 -9 16 -9 22 0 4 7 3 9 -4 5
-12 -7 -10 20 3 31 4 4 5 2 1 -4 -9 -15 10 -18 19 -3 4 6 10 8 15 5 5 -3 12
-1 15 5 4 6 15 8 24 5 11 -3 24 2 32 12 12 16 12 17 -2 6 -13 -10 -16 -10 -16
0 0 16 29 18 39 3 5 -7 8 -4 8 7 0 17 15 24 23 10 2 -5 3 -3 1 3 -1 6 7 20 19
30 21 18 25 20 48 23 5 0 7 7 3 14 -4 6 2 4 13 -6 11 -9 23 -17 28 -17 4 0 1
8 -6 17 -7 10 -9 15 -5 11 5 -4 15 0 23 10 14 16 14 16 9 -1 -3 -9 -4 -17 -2
-17 11 0 69 29 59 30 -7 0 -13 4 -13 10 0 5 7 6 17 3 12 -5 14 -3 9 8 -4 8 0
5 9 -6 17 -20 17 -20 10 3 -3 12 -3 22 2 21 22 -4 34 2 27 14 -4 6 -4 9 1 5
11 -11 47 11 39 24 -4 6 -3 8 4 4 14 -8 74 28 64 39 -4 4 2 5 12 1 16 -5 17
-4 7 8 -11 13 -9 15 9 11 19 -4 20 -2 9 13 -7 9 -9 14 -4 9 4 -4 20 3 33 15
14 13 22 18 18 11 -3 -6 -2 -15 4 -18 6 -4 10 -3 9 2 -4 21 2 43 12 43 5 0 7
-6 3 -12 -6 -10 -5 -10 8 -1 8 7 18 9 23 5 4 -4 2 4 -5 18 -12 23 -12 24 3 11
15 -12 17 -11 17 5 0 16 2 17 10 4 8 -13 10 -12 10 3 0 9 5 17 11 17 5 0 7 4
4 10 -3 6 1 7 9 4 11 -4 16 0 16 10 0 9 5 16 11 16 5 0 7 -6 3 -13 -5 -8 -2
-8 9 2 18 14 23 26 8 17 -5 -3 -11 0 -14 7 -3 9 3 13 15 13 12 -1 23 6 25 14
4 13 3 13 -7 0 -10 -13 -11 -13 -7 0 2 8 11 14 21 12 9 -2 16 3 16 10 0 9 3 9
10 -2 9 -13 10 -13 10 1 0 8 -6 21 -12 29 -7 8 -3 6 10 -5 l23 -19 -7 29 c-7
28 -7 29 10 12 24 -23 29 -21 15 5 -12 22 -11 22 6 8 10 -8 16 -10 13 -5 -6
11 15 47 26 45 4 0 18 8 33 20 14 11 22 20 18 20 -5 0 -18 -8 -29 -18 -16 -13
-18 -13 -8 -1 6 9 8 20 4 24 -4 5 -2 5 5 1 6 -3 14 -2 18 3 3 5 15 8 28 6 21
-4 21 -4 3 10 -18 14 -18 15 -2 15 11 0 15 4 10 13 -5 7 0 6 11 -3 10 -8 16
-10 12 -3 -5 7 1 16 13 23 11 6 20 18 20 26 0 10 6 14 15 10 8 -3 14 -2 14 2
-4 24 3 42 15 42 8 0 18 4 21 10 3 6 -1 7 -12 4 -17 -5 -17 -5 -1 6 10 6 22
18 28 28 8 14 9 12 6 -11 -3 -15 -1 -25 4 -22 4 3 7 18 6 35 -2 23 1 27 11 18
10 -8 13 -6 13 6 0 10 4 15 9 12 5 -3 11 4 14 15 4 13 10 18 17 14 9 -6 9 -2
0 15 -6 12 -9 24 -6 28 3 3 6 -1 6 -8 0 -7 3 -10 7 -7 3 4 11 2 18 -3 8 -7 12
-5 12 5 0 8 -4 15 -9 15 -5 0 -7 4 -3 10 3 5 13 6 22 3 11 -4 14 -3 9 5 -4 7
-2 12 3 12 6 0 11 5 11 11 0 5 -5 7 -12 3 -7 -5 -8 -3 -4 5 5 7 10 10 13 7 6
-6 48 36 48 49 0 6 8 9 17 9 10 -1 14 4 11 12 -8 20 7 39 18 23 6 -9 8 -2 5
19 -2 24 0 30 8 23 8 -7 16 -3 26 12 12 20 12 21 -4 8 -14 -12 -16 -12 -10 3
3 9 10 16 16 16 5 0 7 4 3 9 -3 6 4 8 16 6 18 -4 19 -2 7 12 -7 9 -8 14 -2 10
7 -4 18 1 25 10 8 10 9 14 2 10 -6 -4 -15 -2 -19 4 -4 8 -3 9 4 5 7 -4 12 -3
12 3 0 6 8 7 18 4 14 -6 15 -4 4 9 -10 13 -10 18 -1 24 7 4 9 3 6 -3 -3 -5 0
-10 8 -10 11 0 12 5 3 20 -8 15 -7 18 3 12 9 -6 11 -3 6 9 -4 9 -3 14 2 11 15
-9 24 15 11 30 -9 11 -7 12 11 8 15 -4 20 -3 15 5 -4 7 -2 12 3 12 6 0 11 5
11 11 0 5 -6 7 -12 4 -7 -4 0 5 16 19 23 19 27 28 18 38 -9 11 -7 14 9 15 12
1 17 -3 13 -9 -4 -7 -2 -8 5 -4 9 6 9 11 -1 24 -11 13 -10 15 4 9 10 -3 20 -1
24 5 4 6 3 8 -3 5 -6 -4 -16 0 -22 7 -10 12 -8 13 11 8 21 -5 22 -4 8 13 -14
17 -14 18 7 7 16 -9 24 -9 29 0 4 6 3 8 -3 5 -6 -4 -16 0 -22 7 -10 12 -8 14
11 9 23 -4 23 -4 3 13 -12 10 -14 15 -5 12 8 -3 21 1 28 8 7 8 8 14 2 14 -13
0 -8 33 8 52 6 8 8 19 4 24 -4 5 2 1 13 -8 20 -16 21 -16 22 3 1 12 -3 17 -10
13 -7 -3 -1 4 13 16 14 12 18 19 10 15 -8 -4 -5 2 6 12 12 10 20 26 19 35 -2
11 2 15 13 11 10 -4 13 -2 8 5 -3 6 -2 13 3 16 4 3 11 19 15 36 3 18 10 29 16
25 5 -3 10 -2 10 4 0 5 -6 12 -12 14 -10 4 -10 6 0 6 6 1 12 8 12 16 0 8 5 15
11 15 7 0 9 10 7 24 -4 19 -1 23 11 18 14 -5 14 -3 3 10 -10 13 -10 18 -1 24
8 4 9 3 5 -4 -4 -7 -2 -12 5 -12 6 0 9 8 6 20 -3 11 2 25 12 32 14 12 15 11 2
-5 -12 -15 -12 -17 3 -11 19 7 22 50 4 58 -7 3 1 3 17 1 27 -4 28 -3 13 9 -24
18 -22 25 5 20 12 -2 16 -2 9 2 -20 9 -33 41 -17 41 7 0 11 -6 8 -14 -3 -7 0
-13 6 -13 6 0 10 6 9 13 -2 6 3 11 10 9 8 -1 11 2 7 8 -3 6 -10 8 -15 5 -5 -3
-11 -1 -15 5 -4 6 -11 7 -17 4 -7 -4 -8 -2 -4 5 4 6 11 9 16 6 10 -6 40 4 40
14 0 4 -7 8 -15 8 -8 0 -11 -5 -8 -10 3 -6 1 -7 -6 -3 -15 10 -4 26 17 26 12
0 13 3 5 8 -7 4 -11 17 -10 29 0 12 5 19 10 16 4 -3 6 -11 3 -19 -4 -12 -2
-12 14 -4 22 12 26 21 8 18 -6 -2 -14 5 -16 16 -3 13 0 16 10 10 9 -6 9 -2 -2
11 -8 10 -10 16 -3 12 6 -4 15 -3 18 3 4 6 3 10 -2 9 -4 -1 -15 -1 -23 1 -11
1 -9 4 5 9 11 5 29 4 40 -1 15 -7 14 -5 -4 10 -23 19 -23 20 -5 30 10 6 15 12
10 12 -5 0 -1 8 8 19 9 10 16 25 14 32 -2 8 3 13 10 11 8 -1 11 2 7 8 -4 6 1
18 11 26 18 14 18 14 0 7 -13 -4 -17 -3 -13 4 4 6 1 14 -5 17 -7 3 -3 3 9 1
12 -3 25 0 29 6 4 8 3 9 -4 5 -7 -4 -12 -1 -12 8 0 9 7 13 19 11 19 -3 23 16
7 32 -4 4 -6 2 -4 -6 3 -15 -29 -24 -38 -10 -3 5 0 8 7 7 6 -2 14 3 17 11 3 9
0 11 -8 6 -9 -5 -11 -4 -6 4 4 6 12 9 17 6 5 -4 9 -1 9 4 0 6 -5 11 -11 11 -6
0 -4 6 4 14 14 14 12 70 -2 62 -3 -2 -6 17 -7 42 0 26 1 41 3 34 3 -6 10 -9
16 -5 8 4 7 1 -1 -9 -10 -13 -10 -17 1 -21 15 -5 19 34 4 44 -5 4 -1 19 9 34
10 16 19 33 20 39 1 6 6 20 10 31 7 17 6 18 -8 5 -9 -8 -14 -23 -12 -33 2 -11
-1 -15 -8 -11 -6 4 -8 3 -5 -2 3 -5 -3 -10 -13 -10 -10 0 -16 6 -13 13 3 7 9
11 13 8 5 -3 11 -1 15 5 3 5 0 10 -7 10 -8 0 -6 5 5 11 9 5 17 15 17 20 0 6
-6 7 -12 3 -8 -4 -10 -3 -5 2 5 5 13 9 18 9 5 0 9 4 8 9 0 5 5 12 11 16 8 5 7
9 -3 13 -11 4 -15 0 -12 -13 3 -14 -1 -17 -13 -13 -10 4 -12 8 -4 11 7 2 10 7
7 11 -2 5 2 17 10 27 13 16 14 17 9 2 -3 -10 -2 -18 3 -18 5 0 9 9 10 20 1 11
-1 20 -5 20 -4 0 -13 14 -20 30 -8 17 -18 27 -24 24 -6 -4 -8 -2 -5 3 4 6 20
9 36 8 21 -2 28 1 24 11 -3 8 -9 14 -15 14 -5 0 -6 -5 -2 -11 4 -8 0 -8 -15 0
-12 7 -27 9 -33 5 -7 -5 -8 -3 -4 5 5 7 15 10 24 6 17 -6 51 25 50 46 -2 38 3
48 22 44 19 -4 19 -2 5 26 -13 25 -19 28 -35 19 -11 -6 -20 -7 -20 -2 0 6 10
12 22 15 18 5 19 8 8 21 -8 11 -9 16 -1 16 6 0 11 -4 11 -10 0 -5 7 -10 16
-10 10 0 13 -6 10 -17 -3 -10 -1 -25 4 -33 6 -10 10 -11 10 -2 0 6 5 12 11 12
5 0 7 -5 4 -10 -3 -6 -2 -10 4 -10 5 0 9 9 8 19 -1 16 -5 18 -19 10 -27 -15
-22 -4 8 16 15 9 24 13 21 8 -3 -5 -2 -14 2 -21 4 -6 7 20 7 58 0 39 -4 70 -8
70 -5 0 -8 5 -8 11 0 5 4 8 9 5 4 -3 9 22 10 55 1 47 -1 59 -11 53 -10 -6 -10
-5 -2 7 16 20 13 95 -4 91 -8 -1 -11 2 -7 8 3 6 10 8 15 5 5 -3 9 13 8 35 0
27 -4 38 -12 33 -8 -5 -8 -3 0 8 16 19 17 119 1 138 -9 12 -9 13 1 7 16 -10
16 16 0 33 -7 8 -8 11 -2 8 7 -4 11 5 12 24 0 20 -3 27 -11 23 -8 -5 -8 -3 1
7 16 17 16 43 0 33 -9 -6 -9 -3 0 9 15 18 7 41 -10 31 -7 -4 -8 -2 -4 5 4 6
11 9 16 6 5 -3 8 24 8 60 -1 36 -5 65 -10 65 -4 0 -8 5 -8 11 0 5 5 7 10 4 6
-4 10 8 10 29 0 20 -4 36 -10 36 -5 0 -10 5 -10 11 0 5 5 7 10 4 6 -3 10 1 10
10 0 12 -5 15 -17 11 -17 -6 -17 -5 0 8 20 16 22 32 5 39 -10 4 -10 6 0 6 6 1
12 6 12 12 0 5 -6 7 -12 3 -10 -6 -10 -5 -1 7 13 16 15 89 2 89 -4 0 -10 7
-13 16 -5 14 -4 15 8 5 11 -10 13 -5 13 24 -1 19 -5 35 -9 35 -4 0 -8 8 -8 18
0 14 2 15 10 2 7 -12 9 -11 8 6 -2 15 -7 20 -20 16 -23 -6 -36 26 -17 40 11 7
9 8 -6 4 -11 -3 -27 -1 -35 5 -13 9 -12 10 3 5 10 -3 16 -2 12 3 -3 5 1 12 7
15 7 3 3 3 -8 1 -14 -4 -24 0 -28 10 -3 9 -2 14 2 11 5 -3 9 1 9 8 0 8 -7 12
-15 9 -12 -5 -12 -2 -3 15 15 27 14 37 -2 24 -10 -9 -13 -5 -12 16 0 15 4 33
8 39 5 8 3 13 -6 13 -8 0 -20 6 -26 14 -10 12 -8 14 11 12 17 -2 24 2 24 15 0
13 -4 15 -17 8 -28 -15 -34 -10 -11 9 20 18 20 19 2 32 -16 11 -17 17 -7 29 9
12 9 13 0 7 -9 -5 -13 0 -13 14 0 14 4 19 13 14 6 -4 1 5 -13 21 -14 16 -20
25 -14 22 7 -4 11 4 10 22 -1 16 -4 27 -7 25 -4 -2 -10 3 -13 12 -8 22 -8 26
4 19 6 -3 7 1 4 9 -3 9 -11 13 -17 9 -6 -3 -7 -1 -3 5 15 25 15 51 0 45 -10
-3 -12 0 -8 10 3 8 -3 25 -13 36 -10 12 -18 27 -19 34 -3 34 -5 38 -16 31 -7
-5 -8 -3 -3 6 6 10 12 7 25 -10 13 -17 19 -20 25 -10 5 9 4 11 -3 6 -7 -4 -12
-3 -12 2 0 4 -8 17 -18 28 -25 26 -33 52 -20 60 7 5 8 2 3 -6 -6 -9 -4 -11 5
-5 10 6 8 12 -8 26 -12 9 -23 30 -24 48 -1 19 -7 30 -14 27 -7 -3 -10 5 -8 20
1 13 -2 24 -7 24 -6 0 -5 8 1 20 8 15 8 18 -4 14 -10 -4 -13 3 -10 28 3 31 3
32 -12 13 -15 -19 -15 -19 -9 8 5 17 3 27 -4 27 -6 0 -11 9 -11 21 0 13 -4 18
-12 13 -8 -5 -7 0 2 11 9 11 10 16 3 11 -8 -4 -13 -1 -13 8 0 9 -4 16 -10 16
-5 0 -10 5 -10 11 0 7 -8 18 -17 25 -17 13 -17 14 2 8 20 -7 20 -7 0 9 -10 8
-26 12 -35 10 -10 -4 -8 0 5 11 11 10 14 14 6 10 -10 -5 -13 -3 -8 9 3 9 -1
21 -11 29 -10 8 -13 8 -9 1 4 -6 2 -15 -5 -19 -7 -4 -10 -4 -6 1 4 4 3 16 -3
26 -7 14 -6 17 4 13 8 -3 14 2 14 10 0 8 -4 13 -9 10 -5 -4 -9 0 -7 7 3 29 -1
40 -13 33 -10 -6 -10 -5 -1 8 16 19 5 32 -14 16 -12 -10 -14 -8 -11 8 1 10 -2
18 -9 17 -13 -3 -12 15 1 36 7 11 5 13 -6 9 -11 -5 -14 0 -10 19 3 17 -1 29
-12 35 -9 5 -13 14 -10 20 5 7 2 8 -6 3 -10 -6 -12 -4 -7 7 6 17 -37 88 -54
88 -6 0 -6 7 1 20 6 11 7 20 3 19 -4 -1 -15 -1 -23 0 -12 1 -12 3 -2 10 11 7
11 9 -2 14 -9 4 -16 1 -16 -5 0 -6 -3 -8 -6 -5 -4 4 -1 13 6 22 9 11 9 15 1
15 -7 0 -9 5 -6 11 4 6 0 9 -10 7 -11 -2 -19 4 -21 16 -1 10 -8 22 -14 26 -7
4 -11 11 -11 16 1 5 -5 9 -11 9 -7 0 -11 9 -10 20 3 15 1 17 -10 7 -11 -9 -14
-7 -15 9 -1 12 3 17 9 13 7 -4 8 -2 4 4 -4 6 -14 8 -23 5 -12 -5 -14 -3 -7 8
16 26 12 36 -13 33 -17 -2 -23 2 -19 11 3 8 -3 17 -14 20 -10 3 -21 13 -25 22
-5 15 -4 15 14 -1 15 -14 21 -15 27 -4 4 7 4 10 -1 6 -4 -4 -19 1 -33 12 -13
11 -28 17 -33 14 -5 -3 -9 0 -9 6 0 6 -5 8 -12 4 -7 -4 -8 -3 -4 4 4 6 14 9
24 6 15 -5 15 -5 -1 6 -9 6 -21 9 -26 5 -5 -3 -13 0 -17 6 -4 8 -3 9 4 5 7 -4
12 -2 12 3 0 10 -21 16 -42 12 -4 0 -5 6 -2 14 4 8 10 15 16 15 5 0 6 -5 2
-11 -4 -8 0 -8 15 0 28 16 27 18 -13 16 -32 -1 -33 1 -25 24 9 22 8 23 -7 10
-15 -12 -16 -11 -9 11 l8 25 -24 -20 c-22 -19 -23 -19 -9 -1 14 18 13 19 -2
13 -10 -3 -20 -1 -24 5 -4 6 -3 8 2 5 6 -3 16 -2 24 4 12 7 10 9 -7 9 -14 0
-23 6 -23 15 0 8 -5 15 -11 15 -5 0 -8 -4 -4 -9 3 -5 0 -13 -6 -17 -8 -4 -9
-3 -5 4 4 7 1 12 -6 12 -7 0 -2 9 12 20 16 13 18 18 7 14 -10 -4 -17 -3 -15 2
2 5 0 10 -5 12 -16 5 -19 1 -7 -13 10 -12 10 -15 -2 -15 -16 0 -20 29 -7 45 5
7 0 11 -14 12 -17 2 -19 0 -7 -7 8 -5 10 -10 4 -10 -6 0 -17 7 -24 15 -7 8
-17 12 -24 8 -6 -3 -6 0 2 8 16 18 15 32 -3 26 -8 -4 -17 -1 -21 5 -4 7 -3 8
4 4 7 -4 12 -1 12 8 0 8 -10 20 -22 26 -22 10 -22 10 -4 -4 18 -15 18 -15 -1
-13 -17 1 -20 8 -18 39 1 20 0 37 -4 36 -18 -2 -32 3 -27 10 3 5 -2 9 -11 9
-13 0 -12 -4 5 -17 14 -12 17 -21 11 -31 -7 -11 -9 -10 -9 4 0 11 -4 15 -12
11 -6 -4 -8 -3 -4 4 3 6 2 14 -4 17 -8 5 -8 11 0 20 8 9 4 12 -15 10 -14 -2
-23 1 -19 6 3 5 9 7 14 4 5 -3 12 -1 15 5 4 6 3 10 -2 9 -21 -4 -32 3 -38 22
-6 17 -9 18 -23 7 -12 -10 -14 -10 -8 0 4 7 2 12 -4 12 -6 0 -8 5 -5 10 4 6
12 7 18 3 7 -4 5 1 -2 11 -14 17 -16 17 -29 -1 -12 -16 -13 -16 -7 10 7 25 3
29 -22 26 -3 0 -10 6 -15 15 -5 9 -15 13 -21 10 -7 -4 -9 -4 -5 1 4 4 3 15 -4
22 -9 11 -9 17 3 24 8 5 9 9 3 9 -6 0 -14 -3 -18 -7 -3 -4 -14 -8 -22 -9 -13
-2 -13 1 3 18 10 12 12 18 5 14 -7 -4 -15 -1 -18 8 -3 9 -12 16 -19 16 -8 0
-17 5 -21 12 -4 6 -3 8 3 5 5 -3 10 0 10 7 0 8 -8 12 -21 9 -15 -4 -17 -2 -8
5 11 7 10 10 -3 16 -23 8 -27 8 -20 -4 4 -6 -1 -7 -11 -3 -11 4 -13 8 -6 11 7
2 12 8 12 13 0 6 -5 7 -12 3 -8 -5 -9 -2 -5 10 4 9 3 15 -2 11 -5 -3 -11 -2
-14 2 -2 5 -2 2 -1 -4 2 -7 -1 -13 -6 -13 -6 0 -10 5 -10 11 0 5 -5 7 -12 3
-7 -4 -8 -3 -4 4 4 7 0 22 -8 34 -9 12 -16 18 -16 12 0 -5 6 -16 13 -23 10
-10 9 -11 -5 -6 -10 4 -18 15 -18 25 0 10 -8 24 -17 31 -11 10 -14 10 -9 2 4
-7 2 -13 -3 -13 -6 0 -11 5 -11 10 0 6 -10 10 -22 11 -13 0 -17 3 -10 6 20 8
14 20 -10 18 -25 -3 -58 21 -58 41 0 7 -5 16 -12 20 -6 4 -8 3 -4 -4 3 -6 2
-14 -4 -17 -6 -4 -9 -3 -8 2 1 4 -1 18 -6 31 -6 19 -23 27 -49 23 -5 -1 -6 3
-2 9 3 5 -1 10 -10 10 -12 0 -15 5 -11 16 4 11 2 15 -8 11 -8 -3 -17 -1 -20 6
-3 9 -7 8 -15 -3 -8 -11 -10 -7 -6 17 3 29 2 32 -15 23 -15 -8 -17 -6 -14 13
2 12 1 16 -2 9 -4 -10 -10 -8 -22 5 -32 36 -68 53 -82 40 -8 -7 -11 -8 -7 -1
4 6 -1 20 -9 30 -9 10 -12 13 -9 5 5 -9 -1 -7 -19 4 -17 11 -25 24 -21 33 5
13 3 13 -12 1 -10 -8 -14 -9 -10 -2 5 7 -2 17 -15 24 -22 12 -22 11 -8 -7 14
-19 14 -19 -7 0 -13 10 -21 22 -18 25 2 4 -5 8 -16 8 -18 2 -19 0 -7 -14 12
-15 11 -15 -10 -2 -12 8 -18 15 -12 17 16 6 1 22 -21 22 -10 0 -18 6 -17 13 2
7 -6 11 -21 9 -17 -3 -22 0 -18 11 4 10 -1 13 -19 11 -13 -1 -24 2 -24 7 0 5
-7 9 -15 9 -8 0 -15 4 -15 9 0 5 -7 12 -16 15 -15 6 -15 4 -3 -11 7 -10 0 -6
-17 10 -17 15 -33 24 -37 20 -4 -3 -7 -1 -7 6 0 9 -10 12 -29 9 -26 -4 -28 -2
-20 13 8 15 5 17 -21 14 -21 -3 -28 -1 -24 7 5 8 1 9 -10 5 -14 -6 -17 -3 -12
10 5 15 4 15 -9 -1 -15 -19 -15 -19 -15 5 0 17 -3 20 -9 11 -6 -11 -10 -10
-15 3 -4 11 -13 15 -26 12 -11 -3 -18 -2 -16 1 6 11 -17 27 -38 27 -11 0 -21
7 -23 15 -4 13 -3 13 7 0 9 -12 11 -12 8 -1 -2 8 -11 15 -20 17 -12 1 -15 -3
-11 -14 4 -13 2 -12 -9 2 -10 12 -21 17 -32 13 -9 -4 -15 -3 -12 1 2 4 1 14
-5 22 -5 9 -9 10 -9 3 0 -14 -33 -10 -38 5 -2 7 -8 12 -13 12 -6 0 -7 -6 -3
-12 5 -9 3 -9 -9 1 -9 7 -14 18 -10 24 3 6 1 7 -6 3 -6 -4 -18 -3 -26 4 -10 8
-15 8 -21 -1 -5 -8 -3 -9 6 -4 9 5 11 4 6 -4 -4 -6 -12 -9 -17 -5 -5 3 -7 10
-4 15 4 5 3 9 -2 10 -29 3 -48 9 -51 18 -2 6 -8 11 -13 11 -6 0 -7 -4 -4 -10
3 -5 1 -10 -4 -10 -6 0 -11 5 -11 11 0 6 -6 9 -14 6 -8 -3 -17 1 -20 9 -3 9
-10 12 -16 9 -6 -4 -7 -11 -4 -17 5 -7 2 -8 -5 -4 -7 5 -10 14 -7 21 3 9 -2
11 -16 7 -13 -3 -19 -1 -15 5 3 5 0 10 -8 10 -8 0 -12 -4 -10 -8 3 -4 -6 -2
-19 4 -13 7 -22 15 -20 19 3 4 -9 5 -25 3 -24 -3 -29 0 -24 13 6 15 5 15 -10
3 -13 -10 -17 -10 -17 -1 0 9 -4 9 -17 -1 -11 -10 -14 -10 -9 -1 7 12 -4 16
-33 12 -9 -1 -12 4 -7 17 6 17 5 17 -8 1 -14 -19 -32 -25 -21 -8 3 6 -3 10
-15 10 -12 0 -31 5 -42 11 -16 9 -19 8 -12 -3 6 -10 5 -11 -7 -1 -12 10 -18
10 -27 1 -9 -9 -10 -6 -7 13 4 20 2 22 -8 8 -12 -16 -42 -15 -31 2 3 5 1 9 -5
9 -5 0 -13 -5 -16 -10 -4 -6 -11 -8 -16 -4 -6 3 -5 12 3 22 12 15 11 15 -4 4
-12 -10 -22 -11 -36 -3 -13 7 -22 7 -30 -1 -9 -9 -12 -8 -12 3 0 12 -2 12 -10
-1 -5 -8 -10 -10 -10 -4 0 7 -7 15 -16 18 -8 3 -12 2 -9 -4 3 -6 1 -10 -4 -10
-6 0 -11 5 -11 10 0 5 -3 9 -7 9 -22 -4 -33 3 -33 17 0 14 -2 15 -17 3 -15
-13 -15 -12 -4 10 7 13 8 21 3 17 -6 -4 -15 1 -20 11 -7 11 -25 17 -61 19 -28
1 -49 -2 -46 -6 3 -5 0 -12 -6 -16 -7 -4 -9 -3 -5 4 3 6 2 13 -4 17 -5 3 -10
0 -10 -7 0 -10 -2 -10 -8 -1 -9 14 -52 13 -52 -2 0 -5 -4 -4 -8 3 -7 9 -127
12 -563 10 l-554 -3 3 -25 c2 -19 0 -22 -8 -10 -9 13 -10 13 -10 0 -1 -9 -6
-5 -15 10 -8 14 -14 19 -15 12 0 -7 -5 -10 -10 -7 -6 4 -8 9 -6 13 2 4 -9 7
-24 7 -16 1 -26 -3 -24 -7 7 -11 -10 -10 -22 2 -6 6 -17 5 -32 -6z m62 -9 c4
13 10 14 26 5 11 -6 18 -15 15 -21 -4 -5 -2 -9 4 -9 5 0 12 5 14 10 3 6 4 5 3
-2 -2 -7 -9 -13 -17 -13 -8 0 -13 5 -12 12 3 13 -22 12 -34 -2 -4 -4 -2 -5 5
-1 6 4 12 2 12 -3 0 -14 -17 -14 -26 0 -4 8 -9 7 -15 -2 -8 -11 -12 -10 -24 5
-8 11 -15 14 -15 8 0 -7 -5 -12 -11 -12 -8 0 -8 5 1 15 7 8 16 12 21 9 5 -3 9
0 9 7 0 8 7 6 19 -5 17 -15 19 -15 25 -1z m1350 4 c-4 -8 1 -9 17 -5 20 6 21
5 6 -4 -19 -12 -41 -4 -32 11 4 5 8 9 11 9 3 0 2 -5 -2 -11z m60 -17 c3 -5 -1
-9 -9 -9 -8 0 -12 4 -9 9 3 4 7 8 9 8 2 0 6 -4 9 -8z m-1734 -82 c0 -5 -5 -10
-11 -10 -5 0 -7 5 -4 10 3 6 8 10 11 10 2 0 4 -4 4 -10z m3225 -480 c-3 -5
-12 -10 -18 -10 -7 0 -6 4 3 10 19 12 23 12 15 0z m-4529 -35 c-9 -9 -16 -13
-16 -8 0 5 5 14 12 21 6 6 14 10 16 7 2 -2 -3 -11 -12 -20z m4779 -125 c3 -5
1 -10 -4 -10 -6 0 -11 5 -11 10 0 6 2 10 4 10 3 0 8 -4 11 -10z m-2690 -80
c-7 -12 32 -9 52 3 6 4 14 3 17 -1 4 -7 51 -8 51 -2 0 7 257 5 261 -2 3 -5 11
-5 17 -1 17 11 30 11 45 0 8 -6 12 -6 12 2 0 6 5 11 11 11 5 0 8 -3 6 -7 -3
-5 20 -9 51 -10 68 -2 85 -5 94 -18 5 -6 8 -5 8 4 0 11 3 11 17 0 11 -10 14
-10 9 -1 -4 7 -1 12 8 12 9 0 16 -4 16 -8 0 -4 17 -8 38 -7 20 0 45 -3 54 -7
10 -5 18 -3 21 5 4 8 6 7 6 -4 1 -10 11 -16 34 -16 61 -1 68 -3 61 -14 -5 -8
-1 -8 13 0 11 6 23 7 27 3 4 -3 19 -7 34 -8 15 0 38 -6 52 -11 18 -8 27 -7 32
1 5 7 8 6 8 -5 0 -11 9 -15 35 -14 19 1 32 -2 29 -6 -3 -5 4 -9 16 -9 12 0 30
-5 41 -10 14 -8 19 -7 19 2 1 8 7 5 15 -6 11 -14 15 -16 15 -5 0 9 3 10 8 3 4
-6 17 -10 29 -9 12 1 20 -2 17 -7 -3 -4 9 -8 25 -8 17 0 31 -5 31 -11 0 -8 6
-7 17 2 14 12 16 12 11 -1 -4 -12 1 -16 21 -15 14 1 31 -3 38 -8 7 -5 17 -6
22 -3 5 4 13 0 18 -8 4 -8 22 -17 38 -20 16 -3 36 -13 42 -23 12 -16 13 -15
14 3 0 15 2 16 7 4 4 -8 14 -15 22 -15 8 0 14 -5 13 -12 -2 -9 4 -10 23 -3 21
9 25 8 21 -4 -4 -10 0 -14 14 -11 10 2 19 0 19 -6 0 -5 9 -9 20 -9 12 0 20 -7
20 -17 0 -15 2 -16 10 -3 7 11 10 11 10 2 0 -7 5 -10 10 -7 6 3 10 1 10 -5 0
-6 5 -8 10 -5 6 3 10 1 10 -5 0 -6 5 -8 10 -5 6 3 10 1 10 -4 0 -6 6 -10 13
-9 6 2 11 -3 9 -10 -1 -8 2 -11 8 -7 5 3 10 1 10 -4 0 -6 4 -11 10 -11 5 0 7
7 3 16 -5 14 -3 14 15 -2 12 -9 18 -22 15 -27 -3 -6 -1 -7 5 -3 7 4 12 1 12
-6 0 -9 3 -9 10 2 6 10 10 11 10 3 0 -7 7 -13 15 -13 8 0 15 -5 15 -11 0 -5 5
-7 11 -4 6 4 17 -1 25 -11 9 -11 12 -12 8 -4 -7 13 -5 13 9 1 9 -7 15 -17 12
-21 -2 -4 6 -6 19 -5 15 2 32 -6 45 -21 11 -13 26 -24 32 -24 6 0 17 -7 26
-15 8 -8 19 -13 24 -10 5 4 9 1 9 -5 0 -7 7 -10 15 -6 8 3 14 0 12 -7 -1 -7 6
-11 15 -11 10 1 16 -3 15 -10 -1 -6 6 -10 17 -8 10 2 15 -1 12 -7 -8 -13 31
-34 47 -25 6 4 9 4 5 -1 -8 -9 15 -35 32 -35 6 0 8 -5 4 -12 -5 -9 -2 -9 9 1
15 12 17 11 17 -8 0 -12 4 -20 9 -16 5 3 16 -2 25 -11 9 -8 20 -12 26 -9 5 3
10 1 10 -5 0 -15 26 -41 34 -33 3 3 8 -2 12 -11 3 -9 17 -16 33 -16 17 0 22
-3 13 -8 -9 -6 -6 -12 13 -20 14 -6 25 -16 25 -22 0 -5 5 -10 11 -10 14 0 39
-26 39 -40 0 -7 8 -10 20 -7 11 3 23 0 27 -5 4 -7 1 -8 -7 -3 -9 5 -11 4 -6
-3 4 -7 14 -12 21 -12 9 0 12 -6 8 -17 -4 -11 -3 -14 5 -9 7 4 12 3 12 -3 0
-5 -6 -12 -12 -15 -7 -3 -3 -3 10 0 24 6 31 -10 7 -20 -8 -3 -15 -11 -15 -18
0 -9 3 -9 10 2 5 8 12 11 16 7 4 -3 2 -12 -4 -19 -11 -14 9 -53 21 -41 10 9 8
25 -1 19 -5 -3 -9 1 -9 7 0 7 10 14 21 15 12 0 16 -2 9 -6 -8 -5 -9 -13 -3
-22 14 -22 12 -33 -4 -27 -10 4 -13 -1 -12 -17 2 -12 -3 -23 -9 -23 -7 0 -12
7 -11 15 1 14 -15 21 -62 25 -13 2 -32 16 -43 32 -12 17 -19 22 -15 13 3 -10
1 -20 -5 -23 -5 -4 -9 -3 -8 2 3 20 -2 34 -11 28 -5 -3 -10 -1 -10 4 0 6 -5
11 -11 11 -5 0 -7 -6 -4 -12 4 -7 0 -5 -9 6 -9 11 -20 15 -28 10 -10 -6 -10
-4 1 9 12 15 12 17 -3 11 -9 -3 -16 -1 -16 4 0 6 -9 9 -20 7 -15 -3 -24 3 -30
18 -5 12 -9 16 -9 8 -1 -9 -8 -7 -21 9 -11 13 -26 20 -35 16 -9 -3 -15 0 -15
9 0 8 -5 15 -11 15 -5 0 -7 -6 -3 -12 4 -7 -5 -2 -21 12 -22 20 -27 21 -22 7
6 -17 5 -17 -19 2 -14 11 -34 18 -44 16 -11 -2 -20 2 -20 8 0 7 -4 6 -10 -3
-8 -12 -10 -12 -10 -1 0 10 -3 11 -14 2 -11 -9 -16 -9 -22 0 -5 8 -3 10 7 4 8
-5 11 -4 6 0 -4 5 -28 8 -53 6 -33 -2 -44 1 -39 9 5 7 -1 7 -14 -2 -18 -11
-23 -11 -30 1 -6 9 -11 10 -15 2 -5 -7 -13 -8 -25 -1 -12 6 -22 5 -31 -3 -10
-9 -11 -9 -5 1 4 8 2 13 -6 11 -28 -3 -40 1 -33 13 4 7 3 8 -4 4 -19 -12 -53
-16 -47 -5 6 9 2 11 -32 12 -10 1 -21 6 -25 12 -5 6 -8 5 -8 -3 0 -10 -4 -10
-15 2 -9 8 -22 13 -30 10 -8 -4 -17 1 -21 9 -3 9 -14 13 -27 10 -18 -4 -20 -3
-7 7 12 10 11 11 -7 7 -13 -3 -23 -1 -23 5 0 5 -5 6 -10 3 -6 -4 -18 -1 -27 7
-12 9 -15 9 -9 1 4 -7 2 -13 -3 -13 -6 0 -11 5 -11 12 0 9 -3 9 -12 0 -8 -8
-15 -9 -25 -1 -10 9 -13 8 -13 -2 0 -11 -2 -11 -9 0 -8 13 -12 13 -27 0 -14
-11 -16 -11 -10 -1 7 11 4 12 -10 4 -11 -5 -30 -9 -44 -8 -14 1 -32 -4 -41
-11 -9 -8 -20 -13 -25 -12 -21 4 -45 -2 -40 -9 2 -4 -5 -9 -16 -9 -11 -1 -29
-10 -40 -19 -18 -17 -19 -17 -12 2 5 16 4 15 -10 -4 -10 -12 -22 -20 -27 -17
-5 4 -12 -1 -15 -9 -3 -9 -10 -13 -16 -10 -5 3 -18 -2 -29 -12 -10 -9 -19 -13
-19 -9 0 5 -7 0 -16 -11 -8 -10 -12 -13 -8 -5 5 10 -2 9 -24 -4 -17 -10 -28
-23 -25 -28 3 -5 -4 -4 -16 2 -17 9 -21 9 -19 -1 2 -7 -3 -12 -10 -10 -8 1
-11 -2 -7 -8 4 -7 -2 -14 -14 -17 -11 -3 -18 -9 -15 -14 3 -5 0 -9 -7 -9 -7 0
-32 -20 -55 -44 -23 -25 -46 -41 -50 -38 -5 4 -2 -2 6 -12 13 -17 13 -18 1
-11 -11 6 -13 4 -8 -8 4 -11 2 -14 -8 -11 -8 3 -16 -4 -20 -17 -9 -28 -30 -50
-39 -42 -3 4 -6 1 -6 -5 0 -7 5 -12 11 -12 5 0 7 -5 4 -10 -4 -6 -11 -8 -16
-5 -5 4 -9 -1 -9 -9 0 -9 -5 -16 -11 -16 -5 0 -7 -4 -4 -10 3 -5 3 -10 -2 -10
-10 0 -33 -48 -33 -69 0 -13 -2 -13 -9 -3 -6 10 -10 8 -14 -8 -4 -14 -10 -19
-18 -14 -7 4 -10 3 -5 -4 3 -6 2 -13 -4 -17 -5 -3 -10 -1 -10 6 0 8 -5 7 -17
-2 -11 -10 -14 -10 -9 -1 4 6 2 12 -3 12 -6 0 -11 -6 -11 -12 0 -9 -3 -8 -10
2 -6 10 -22 13 -49 11 -23 -1 -41 2 -41 8 0 5 -12 8 -26 5 -14 -3 -23 -1 -21
3 3 4 -9 7 -26 7 -18 -1 -38 4 -46 10 -12 9 -13 8 -6 -3 6 -11 5 -12 -6 -5
-19 11 -40 14 -127 17 -42 1 -72 -2 -73 -8 0 -5 -3 -4 -6 4 -5 11 -7 11 -14 0
-6 -10 -9 -11 -9 -1 0 6 -5 12 -11 12 -5 0 -7 -5 -3 -11 4 -8 0 -8 -15 0 -12
7 -21 8 -21 2 0 -5 -8 -8 -17 -6 -10 1 -27 -5 -38 -14 -18 -15 -19 -15 -7 1
11 14 11 16 -7 11 -12 -3 -21 -9 -21 -13 0 -4 -12 -5 -26 -2 -16 3 -25 1 -21
-5 3 -5 0 -10 -8 -10 -8 0 -11 5 -8 11 4 6 -1 5 -10 -2 -9 -8 -22 -10 -28 -6
-7 4 -9 3 -5 -4 3 -6 2 -13 -4 -17 -5 -3 -10 -1 -10 4 0 6 -5 11 -11 11 -5 0
-7 -4 -4 -10 3 -5 -3 -11 -14 -11 -33 -2 -39 -4 -47 -11 -13 -13 -36 -9 -28 5
4 6 -2 3 -13 -8 -11 -11 -19 -23 -16 -27 2 -4 -3 -5 -11 -2 -9 3 -13 11 -9 18
3 6 -3 3 -14 -6 -11 -10 -25 -18 -32 -18 -7 0 -9 -5 -5 -12 5 -9 2 -9 -9 1
-11 9 -17 10 -17 2 0 -6 -5 -11 -11 -11 -5 0 -7 6 -3 13 6 9 5 9 -8 0 -8 -7
-19 -9 -23 -5 -5 4 -5 1 -1 -5 5 -10 -3 -13 -29 -13 -22 0 -34 4 -30 10 4 6
12 8 18 4 7 -3 1 4 -13 16 -14 12 -20 19 -14 16 17 -8 24 17 10 36 -6 9 -11
34 -10 57 0 24 -4 41 -10 41 -7 0 -7 3 -1 8 14 10 17 32 5 32 -5 0 -10 10 -10
23 0 12 -1 32 -1 45 0 12 -4 20 -9 17 -6 -3 -8 7 -6 24 2 18 -2 36 -10 42 -10
8 -11 16 -4 29 6 12 6 20 0 22 -5 2 -11 15 -12 31 -1 15 -6 27 -11 27 -4 0 -5
5 -2 10 3 6 2 10 -4 10 -5 0 -8 8 -7 17 2 10 -3 24 -11 32 -8 7 -12 20 -9 28
3 7 -1 16 -9 19 -8 4 -13 10 -10 14 3 5 1 11 -4 15 -6 3 -8 12 -4 20 3 9 -1
15 -11 15 -10 0 -16 9 -16 25 0 14 -9 34 -20 45 -11 11 -20 22 -20 25 0 3 0
12 0 21 0 8 -4 12 -10 9 -5 -3 -10 3 -10 13 0 11 -7 25 -15 32 -9 7 -14 19
-11 27 3 7 1 13 -5 13 -5 0 -14 12 -19 26 -6 14 -14 22 -20 19 -6 -3 -7 1 -4
9 3 9 2 16 -4 16 -6 0 -8 8 -5 19 3 10 0 22 -6 25 -7 5 -9 0 -5 -11 3 -10 -1
-7 -9 7 -9 14 -13 28 -10 32 2 5 -3 11 -12 14 -9 4 -14 13 -11 20 3 8 1 14 -4
14 -6 0 -10 7 -10 16 0 8 -4 13 -9 9 -6 -3 -8 3 -6 15 2 11 -1 19 -8 17 -6 -1
-12 3 -13 8 -6 34 -18 55 -33 55 -14 0 -14 2 -1 10 11 7 11 10 2 10 -7 0 -10
5 -7 10 3 6 1 10 -5 10 -8 0 -8 6 0 21 7 12 18 18 26 15 9 -3 12 -1 9 4 -6 10
7 14 34 11 7 -2 11 1 8 6 -3 5 3 10 14 11 43 4 49 6 49 14 0 5 5 6 10 3 6 -4
18 -1 27 7 14 11 16 11 8 -2 -8 -13 -6 -13 8 -2 9 8 21 11 27 7 5 -3 10 -2 10
4 0 5 9 8 20 6 11 -2 20 0 20 5 0 4 11 7 25 6 13 -2 22 0 20 5 -3 4 6 6 20 5
14 -2 55 3 90 9 36 7 65 10 65 8 0 -3 6 -1 13 5 8 7 18 7 27 2 9 -5 19 -5 26
1 6 5 36 10 67 12 30 1 53 5 50 10 -2 4 1 7 6 7 6 0 11 -6 11 -12 0 -9 4 -8
10 2 6 10 10 11 10 3 0 -9 7 -10 25 -3 14 5 25 7 25 4 0 -2 9 0 19 6 14 7 22
7 27 -1 5 -8 10 -6 16 5 5 9 11 16 14 16 3 0 2 -5 -1 -10z m2755 -1070 c0 -5
-2 -10 -4 -10 -3 0 -8 5 -11 10 -3 6 -1 10 4 10 6 0 11 -4 11 -10z m65 -10 c3
-6 -1 -7 -9 -4 -18 7 -21 14 -7 14 6 0 13 -4 16 -10z m-74 -33 c-10 -9 -11 -8
-5 6 3 10 9 15 12 12 3 -3 0 -11 -7 -18z m46 8 c0 -8 -4 -12 -9 -9 -5 3 -6 10
-3 15 9 13 12 11 12 -6z m1173 -59 c0 -2 -7 -7 -16 -10 -8 -3 -12 -2 -9 4 6
10 25 14 25 6z m195 -306 c3 -6 -1 -7 -9 -4 -18 7 -21 14 -7 14 6 0 13 -4 16
-10z m443 -1206 c-1 -5 -9 -9 -16 -10 -10 -2 -11 1 -1 12 12 14 24 13 17 -2z
m-54 -70 c3 -8 2 -12 -4 -9 -6 3 -10 10 -10 16 0 14 7 11 14 -7z m66 -68 c0
-3 -4 -8 -10 -11 -5 -3 -10 -1 -10 4 0 6 5 11 10 11 6 0 10 -2 10 -4z m-56
-64 c3 -5 -1 -9 -9 -9 -8 0 -15 4 -15 9 0 4 4 8 9 8 6 0 12 -4 15 -8z m80 -40
c3 -5 -1 -9 -9 -9 -8 0 -12 4 -9 9 3 4 7 8 9 8 2 0 6 -4 9 -8z m73 -99 c-4 -3
-1 -13 6 -22 11 -14 10 -14 -5 -2 -16 12 -16 31 -1 31 4 0 3 -3 0 -7z m-72
-23 c3 -6 -1 -7 -9 -4 -18 7 -21 14 -7 14 6 0 13 -4 16 -10z m-29 -76 c1 -9 0
-13 -4 -10 -3 4 -7 14 -8 22 -1 9 0 13 4 10 3 -4 7 -14 8 -22z m104 -24 c0 -5
-5 -10 -11 -10 -5 0 -7 5 -4 10 3 6 8 10 11 10 2 0 4 -4 4 -10z m-8943 -55 c0
-8 -4 -12 -9 -9 -5 3 -6 10 -3 15 9 13 12 11 12 -6z m8936 0 c-3 -9 -8 -14
-10 -11 -3 3 -2 9 2 15 9 16 15 13 8 -4z m-73 -60 c14 -19 14 -19 -2 -6 -10 7
-18 18 -18 24 0 6 1 8 3 6 1 -2 9 -13 17 -24z m50 20 c0 -2 -6 -8 -13 -14 -10
-8 -14 -7 -14 2 0 8 6 14 14 14 7 0 13 -1 13 -2z m-131 -69 c-3 -3 -11 5 -18
17 -13 21 -12 21 5 5 10 -10 16 -20 13 -22z m131 30 c0 -2 -8 -10 -17 -17 -16
-13 -17 -12 -4 4 13 16 21 21 21 13z m-125 -146 c-4 -6 -2 -17 5 -25 8 -9 8
-15 0 -20 -6 -4 -9 -1 -8 6 2 7 -2 13 -9 14 -6 0 -15 4 -20 9 -4 5 -3 6 3 3 7
-4 14 0 18 8 3 8 8 15 11 15 4 0 3 -5 0 -10z m32 -5 c0 -8 -4 -12 -9 -9 -5 3
-6 10 -3 15 9 13 12 11 12 -6z m103 11 c0 -3 -4 -8 -10 -11 -5 -3 -10 -1 -10
4 0 6 5 11 10 11 6 0 10 -2 10 -4z m-28 -34 c8 -6 19 -8 23 -4 5 4 5 1 1 -6
-7 -11 -11 -10 -25 2 -10 9 -20 13 -23 10 -3 -3 -9 -1 -12 4 -8 14 18 9 36 -6z
m68 -12 c0 -5 -2 -10 -4 -10 -3 0 -8 5 -11 10 -3 6 -1 10 4 10 6 0 11 -4 11
-10z m-82 -25 c-3 -3 -9 2 -12 12 -6 14 -5 15 5 6 7 -7 10 -15 7 -18z m-53 4
c11 -16 1 -19 -13 -3 -7 8 -8 14 -3 14 5 0 13 -5 16 -11z m-40 -30 c0 -13 4
-30 8 -37 5 -8 4 -19 -3 -27 -8 -10 -9 -15 -2 -15 6 0 14 5 17 10 3 6 12 10
18 10 7 0 4 -5 -6 -11 -9 -6 -15 -14 -12 -20 4 -5 -1 -12 -9 -15 -9 -3 -14
-10 -11 -15 3 -4 12 -6 20 -2 8 3 15 0 15 -7 0 -6 -5 -8 -12 -4 -7 5 -9 2 -5
-9 4 -11 2 -14 -9 -10 -10 4 -12 0 -8 -11 3 -9 10 -14 14 -11 5 3 12 0 16 -7
4 -7 4 -10 -1 -6 -9 9 -35 -9 -35 -24 0 -6 8 -4 17 3 9 8 14 9 10 2 -4 -6 -1
-14 5 -17 7 -3 4 -4 -6 -3 -10 1 -21 -4 -24 -12 -3 -8 0 -11 6 -7 6 3 14 1 18
-5 4 -7 3 -9 -4 -5 -6 3 -13 2 -17 -4 -3 -5 -2 -10 3 -10 6 0 13 -8 16 -17 6
-15 5 -16 -11 -1 -10 8 -25 13 -33 11 -12 -4 -12 -3 -2 5 19 13 19 16 3 36
-12 14 -12 16 4 10 16 -7 16 -5 -1 22 -11 15 -14 25 -7 21 6 -4 14 -3 18 3 3
5 1 10 -6 10 -8 0 -8 4 1 15 12 14 7 20 -14 16 -5 -1 -5 4 1 11 6 7 9 21 8 30
-2 10 1 21 6 24 6 3 5 11 -2 20 -9 11 -8 14 2 14 9 1 8 5 -5 15 -17 13 -18 15
-3 15 18 0 19 19 2 33 -6 5 -4 7 5 4 8 -2 15 -15 15 -28z m76 14 c13 -16 12
-17 -3 -4 -10 7 -18 15 -18 17 0 8 8 3 21 -13z m32 -18 c-3 -9 -8 -14 -10 -11
-3 3 -2 9 2 15 9 16 15 13 8 -4z m-78 -15 c3 -5 1 -10 -4 -10 -6 0 -11 5 -11
10 0 6 2 10 4 10 3 0 8 -4 11 -10z m35 -30 c8 -5 12 -11 10 -14 -3 -2 -14 2
-24 10 -22 15 -10 19 14 4z m65 -20 c3 -5 1 -10 -4 -10 -6 0 -11 5 -11 10 0 6
2 10 4 10 3 0 8 -4 11 -10z m-81 -24 c-4 -11 1 -13 18 -10 21 4 21 3 3 -5 -11
-4 -23 -7 -27 -4 -11 6 -10 33 2 33 5 0 7 -6 4 -14z m37 -43 c13 -16 12 -17
-3 -4 -10 7 -18 15 -18 17 0 8 8 3 21 -13z m16 -28 c12 1 20 -2 17 -7 -7 -11
-39 -5 -58 11 -13 11 -16 11 -16 1 0 -8 -3 -11 -6 -7 -3 3 -3 11 1 17 5 8 12
7 23 -3 10 -8 27 -13 39 -12z m-7 -46 c0 -5 -4 -9 -8 -9 -5 0 -9 7 -9 15 0 8
4 12 9 9 4 -3 8 -9 8 -15z m-20 -39 c0 -5 -2 -10 -4 -10 -3 0 -8 5 -11 10 -3
6 -1 10 4 10 6 0 11 -4 11 -10z m34 2 c3 -5 -1 -9 -9 -9 -8 0 -12 4 -9 9 3 4
7 8 9 8 2 0 6 -4 9 -8z m56 3 c0 -2 -6 -8 -13 -14 -10 -8 -14 -7 -14 2 0 8 6
14 14 14 7 0 13 -1 13 -2z m-163 -57 c11 -19 12 -38 2 -38 -8 0 -11 8 -8 26 0
4 -5 11 -13 15 -9 6 -9 9 -1 9 6 0 15 -6 20 -12z m127 -10 c-3 -4 -11 -5 -19
-1 -21 7 -19 12 4 10 11 0 18 -5 15 -9z m-132 -46 c-10 -3 -10 -7 -1 -18 7 -8
9 -17 5 -21 -3 -3 -6 -1 -6 7 0 10 -4 10 -17 -1 -16 -12 -17 -12 -7 1 6 8 10
23 9 32 -2 12 2 15 13 10 11 -4 12 -7 4 -10z m128 12 c0 -8 -19 -13 -24 -6 -3
5 1 9 9 9 8 0 15 -2 15 -3z m-50 -20 c0 -8 -19 -13 -24 -6 -3 5 1 9 9 9 8 0
15 -2 15 -3z m55 -23 c-9 -8 -36 -10 -30 -2 2 4 11 8 20 8 8 0 13 -3 10 -6z
m-58 -26 c0 -8 -4 -12 -9 -9 -5 3 -6 10 -3 15 9 13 12 11 12 -6z m-70 -1 c-3
-3 -12 -4 -19 -1 -8 3 -5 6 6 6 11 1 17 -2 13 -5z m173 -14 c0 -5 -2 -10 -4
-10 -3 0 -8 5 -11 10 -3 6 -1 10 4 10 6 0 11 -4 11 -10z m-147 -35 c-3 -9 -8
-14 -10 -11 -3 3 -2 9 2 15 9 16 15 13 8 -4z m-18 -24 c3 -6 -5 -20 -17 -32
-16 -15 -18 -20 -7 -16 17 6 39 -10 39 -27 0 -6 -5 -3 -11 6 -5 9 -16 15 -24
12 -8 -4 -12 -10 -9 -15 3 -5 10 -6 16 -3 7 4 8 2 4 -4 -4 -7 -1 -12 6 -12 7
0 4 -6 -7 -12 -11 -6 -23 -16 -26 -21 -4 -5 -9 -5 -13 1 -3 6 3 13 14 17 11 4
18 11 14 16 -3 5 -9 7 -13 4 -5 -2 -7 9 -6 27 2 17 11 35 20 41 14 8 15 11 4
18 -9 6 -10 9 -2 9 6 0 14 -4 18 -9z m100 -61 c-3 -5 -1 -10 6 -10 7 0 10 -3
6 -6 -9 -9 -28 6 -22 17 4 5 8 9 11 9 3 0 2 -4 -1 -10z m-28 -6 c-3 -3 -12 -4
-19 -1 -8 3 -5 6 6 6 11 1 17 -2 13 -5z m70 -29 c0 -8 -4 -12 -9 -9 -4 3 -8 1
-8 -5 0 -5 6 -12 13 -14 9 -4 9 -6 -1 -6 -7 -1 -15 6 -18 14 -4 8 -10 13 -14
10 -5 -3 -11 -1 -15 4 -3 6 3 8 15 6 11 -2 22 0 25 6 9 13 12 11 12 -6z m-67
0 c0 -2 -6 -8 -13 -14 -10 -8 -14 -7 -14 2 0 8 6 14 14 14 7 0 13 -1 13 -2z
m-5 -45 c3 -6 -1 -7 -9 -4 -18 7 -21 14 -7 14 6 0 13 -4 16 -10z m29 -2 c-5
-7 -2 -9 9 -5 11 4 14 2 10 -9 -4 -11 -9 -12 -19 -3 -12 10 -11 29 2 29 3 0 2
-5 -2 -12z m-111 -11 c7 3 8 2 4 -2 -14 -16 -36 -14 -29 3 4 10 7 12 10 4 2
-7 9 -9 15 -5z m175 -12 c-3 -3 -9 2 -12 12 -6 14 -5 15 5 6 7 -7 10 -15 7
-18z m-48 -37 c0 -15 -15 -8 -28 12 -12 19 -11 20 8 8 11 -7 20 -16 20 -20z
m30 22 c0 -5 -4 -10 -10 -10 -5 0 -10 5 -10 10 0 6 5 10 10 10 6 0 10 -4 10
-10z m10 -30 c-11 -21 -30 -27 -30 -9 0 5 4 8 9 5 5 -3 11 1 15 9 3 8 8 15 11
15 3 0 1 -9 -5 -20z m-8950 -12 c0 -9 4 -8 10 2 6 9 10 10 10 3 0 -6 -5 -15
-11 -19 -8 -4 -7 -9 2 -15 11 -7 11 -9 1 -9 -8 0 -10 -5 -6 -12 5 -10 4 -10
-7 0 -15 14 -21 62 -7 62 4 0 8 -6 8 -12z m8760 8 c0 -3 -4 -8 -10 -11 -5 -3
-10 -1 -10 4 0 6 5 11 10 11 6 0 10 -2 10 -4z m0 -61 c14 -19 14 -19 -2 -6
-10 7 -18 18 -18 24 0 6 1 8 3 6 1 -2 9 -13 17 -24z m128 -13 c2 -7 0 -12 -5
-11 -13 3 -43 -12 -43 -23 0 -5 4 -7 8 -4 10 6 8 -21 -3 -46 -7 -18 -25 -15
-25 3 0 6 5 7 12 3 8 -5 9 2 5 24 -5 24 -2 34 11 41 14 8 14 10 2 11 -13 0
-13 1 0 10 18 12 32 8 38 -8z m-168 -116 c0 -8 -4 -17 -8 -20 -4 -2 -8 4 -8
15 0 10 4 19 8 19 4 0 8 -6 8 -14z m60 -43 c0 -3 -7 -3 -15 1 -8 3 -15 0 -15
-6 0 -6 -3 -9 -6 -5 -11 10 6 26 21 20 8 -3 15 -7 15 -10z m-57 -23 c-3 -11
-9 -20 -15 -20 -5 0 -4 9 2 20 6 11 12 20 14 20 2 0 2 -9 -1 -20z m101 -2 c13
-18 13 -23 2 -32 -8 -6 -16 -18 -19 -26 -4 -12 -6 -11 -6 3 -1 9 -5 17 -10 17
-5 0 -12 8 -15 17 -6 15 -5 15 13 -1 13 -12 21 -14 26 -6 9 14 -1 40 -16 40
-8 0 -7 -6 2 -17 13 -16 12 -17 -3 -4 -10 7 -15 17 -12 22 9 15 22 10 38 -13z
m-69 -8 c3 -5 1 -10 -4 -10 -6 0 -11 5 -11 10 0 6 2 10 4 10 3 0 8 -4 11 -10z
m-18 -26 c-3 -3 -12 -4 -19 -1 -8 3 -5 6 6 6 11 1 17 -2 13 -5z m-42 -14 c-3
-5 -1 -10 6 -10 7 0 10 -3 6 -6 -9 -9 -28 6 -22 17 4 5 8 9 11 9 3 0 2 -4 -1
-10z m105 -38 c0 -4 -10 -9 -22 -9 -18 -2 -20 0 -8 7 18 12 30 13 30 2z
m-8705 -30 c-3 -3 -11 0 -18 7 -9 10 -8 11 6 5 10 -3 15 -9 12 -12z m8603 -17
c-3 -3 -9 2 -12 12 -6 14 -5 15 5 6 7 -7 10 -15 7 -18z m112 -69 c0 -2 -7 -9
-15 -16 -13 -11 -14 -10 -9 4 5 14 24 23 24 12z m-16 -168 c-3 -4 -11 -8 -17
-7 -9 0 -9 2 0 5 7 3 9 13 6 22 -4 14 -3 14 5 2 6 -8 8 -18 6 -22z m-8024
-1358 c0 -5 -2 -10 -4 -10 -3 0 -8 5 -11 10 -3 6 -1 10 4 10 6 0 11 -4 11 -10z
m387 -485 c0 -8 -4 -12 -9 -9 -5 3 -6 10 -3 15 9 13 12 11 12 -6z m38 -55 c3
-6 -1 -7 -9 -4 -18 7 -21 14 -7 14 6 0 13 -4 16 -10z m6429 -106 c3 -8 2 -12
-4 -9 -6 3 -10 10 -10 16 0 14 7 11 14 -7z m-6245 -27 c-2 -1 -13 -9 -24 -17
-19 -14 -19 -14 -6 3 7 9 18 17 24 17 6 0 8 -1 6 -3z m441 -349 c0 -12 -6 -9
-26 13 -19 22 -19 22 4 8 12 -8 22 -17 22 -21z m5040 -179 c0 -9 -31 -21 -38
-14 -3 3 0 5 7 5 7 0 10 4 7 8 -3 5 1 9 9 9 8 0 15 -4 15 -8z m-80 -39 c0 -5
-8 -10 -17 -10 -15 0 -16 2 -3 10 19 12 20 12 20 0z m-4443 -156 c-9 -9 -28 6
-21 18 4 6 10 6 17 -1 6 -6 8 -13 4 -17z m4098 -82 c-3 -3 -11 0 -18 7 -9 10
-8 11 6 5 10 -3 15 -9 12 -12z m-3781 -48 c3 -8 2 -12 -4 -9 -6 3 -10 10 -10
16 0 14 7 11 14 -7z m133 -61 c0 -9 -4 -10 -14 -2 -7 6 -13 12 -13 14 0 1 6 2
13 2 8 0 14 -6 14 -14z m3176 -57 c4 -11 -1 -13 -18 -10 -13 2 -27 -1 -31 -7
-4 -8 -9 -7 -15 2 -8 12 -10 12 -18 0 -5 -8 -11 -9 -15 -3 -7 11 21 25 35 16
5 -3 17 0 26 5 24 14 30 13 36 -3z m-508 -116 c-3 -5 -12 -10 -18 -10 -7 0 -6
4 3 10 19 12 23 12 15 0z m-34 -43 c-10 -9 -11 -8 -5 6 3 10 9 15 12 12 3 -3
0 -11 -7 -18z m-1963 -12 c-3 -3 -9 2 -12 12 -6 14 -5 15 5 6 7 -7 10 -15 7
-18z m1972 0 c10 9 21 12 24 7 16 -26 -44 -36 -79 -13 -15 9 -16 11 -2 7 10
-3 17 0 17 7 0 7 5 4 11 -6 10 -17 12 -17 29 -2z m-82 -7 c-2 -6 -10 -13 -16
-14 -7 -1 -8 0 -2 3 5 2 8 9 4 14 -3 5 0 9 6 9 7 0 10 -5 8 -12z m-41 -4 c-3
-3 -12 -4 -19 -1 -8 3 -5 6 6 6 11 1 17 -2 13 -5z m-1572 -56 c5 4 5 1 1 -6
-6 -10 -11 -10 -22 -1 -8 6 -14 14 -14 16 0 3 6 0 13 -6 8 -6 18 -7 22 -3z"/>
<path d="M3750 8969 c0 -5 5 -7 10 -4 6 3 10 8 10 11 0 2 -4 4 -10 4 -5 0 -10
-5 -10 -11z"/>
<path d="M6897 7225 c-4 -8 -3 -16 1 -19 4 -3 9 4 9 15 2 23 -3 25 -10 4z"/>
<path d="M6895 7179 c-4 -6 -14 -8 -24 -5 -14 6 -15 5 0 -6 9 -7 14 -20 12
-28 -4 -12 -3 -12 5 -1 7 10 11 10 14 1 2 -7 9 1 16 16 11 25 10 27 -1 12 -8
-10 -17 -15 -20 -11 -4 3 -2 12 4 20 6 7 9 13 6 13 -3 0 -9 -5 -12 -11z"/>
<path d="M6935 7150 c3 -5 1 -10 -6 -10 -16 0 -5 -11 13 -14 7 -1 20 -6 28
-10 8 -5 4 3 -9 17 -25 27 -37 35 -26 17z"/>
<path d="M8803 4565 c0 -7 6 -11 14 -8 7 3 13 6 13 8 0 2 -6 5 -13 8 -8 3 -14
-1 -14 -8z"/>
<path d="M3506 8968 c3 -5 10 -6 15 -3 13 9 11 12 -6 12 -8 0 -12 -4 -9 -9z"/>
<path d="M3515 8940 c-3 -6 1 -7 9 -4 18 7 21 14 7 14 -6 0 -13 -4 -16 -10z"/>
<path d="M3275 8930 c3 -5 8 -10 11 -10 2 0 4 5 4 10 0 6 -5 10 -11 10 -5 0
-7 -4 -4 -10z"/>
<path d="M3475 8930 c-3 -5 -1 -10 4 -10 6 0 11 5 11 10 0 6 -2 10 -4 10 -3 0
-8 -4 -11 -10z"/>
<path d="M3310 8899 c0 -5 5 -7 10 -4 6 3 10 8 10 11 0 2 -4 4 -10 4 -5 0 -10
-5 -10 -11z"/>
<path d="M7231 8024 c6 -7 16 -11 21 -8 11 7 3 17 -18 20 -12 2 -13 -1 -3 -12z"/>
<path d="M7597 7719 c12 -12 25 -20 28 -17 3 3 -7 13 -22 23 l-28 17 22 -23z"/>
<path d="M7881 7406 c-9 -11 -9 -16 1 -22 7 -4 10 -4 6 1 -4 4 -3 14 3 22 6 7
9 13 6 13 -2 0 -10 -6 -16 -14z"/>
<path d="M8485 6550 c3 -5 8 -10 11 -10 2 0 4 5 4 10 0 6 -5 10 -11 10 -5 0
-7 -4 -4 -10z"/>
<path d="M8780 5836 c0 -2 7 -9 15 -16 9 -7 15 -8 15 -2 0 5 -7 12 -15 16 -8
3 -15 4 -15 2z"/>
<path d="M8893 5385 c0 -8 4 -12 9 -9 5 3 6 10 3 15 -9 13 -12 11 -12 -6z"/>
<path d="M8965 5220 c-3 -6 1 -7 9 -4 18 7 21 14 7 14 -6 0 -13 -4 -16 -10z"/>
<path d="M8949 3853 c-13 -16 -12 -17 4 -4 9 7 17 15 17 17 0 8 -8 3 -21 -13z"/>
<path d="M8980 3850 c-9 -6 -10 -10 -3 -10 6 0 15 5 18 10 8 12 4 12 -15 0z"/>
<path d="M8966 3808 c3 -5 10 -6 15 -3 13 9 11 12 -6 12 -8 0 -12 -4 -9 -9z"/>
<path d="M8860 3730 c0 -6 7 -10 15 -10 8 0 15 2 15 4 0 2 -7 6 -15 10 -8 3
-15 1 -15 -4z"/>
<path d="M8827 3399 c7 -7 15 -10 18 -7 3 3 -2 9 -12 12 -14 6 -15 5 -6 -5z"/>
<path d="M466 2513 c-6 -14 -5 -15 5 -6 7 7 10 15 7 18 -3 3 -9 -2 -12 -12z"/>
<path d="M476 2492 c-3 -4 4 -9 15 -9 23 -2 25 3 4 10 -8 4 -16 3 -19 -1z"/>
<path d="M510 2416 c0 -2 7 -7 16 -10 8 -3 12 -2 9 4 -6 10 -25 14 -25 6z"/>
<path d="M8434 2358 c-12 -19 -14 -39 -3 -32 5 3 7 9 4 14 -3 4 1 10 7 13 7 2
10 7 7 11 -4 4 -11 1 -15 -6z"/>
<path d="M746 2012 c-2 -4 4 -8 14 -8 10 0 16 4 14 8 -3 4 -9 8 -14 8 -5 0
-11 -4 -14 -8z"/>
<path d="M896 1753 c-6 -14 -5 -15 5 -6 7 7 10 15 7 18 -3 3 -9 -2 -12 -12z"/>
<path d="M1233 1379 c-2 -23 3 -25 10 -4 4 8 3 16 -1 19 -4 3 -9 -4 -9 -15z"/>
<path d="M1396 1262 c-3 -5 1 -9 9 -9 8 0 12 4 9 9 -3 4 -7 8 -9 8 -2 0 -6 -4
-9 -8z"/>
<path d="M1544 1139 c-5 -8 -3 -9 6 -4 10 6 12 4 7 -8 -3 -9 -3 -18 1 -21 4
-3 8 4 9 14 2 23 -13 35 -23 19z"/>
<path d="M1670 1062 c0 -4 10 -13 23 -21 22 -14 22 -14 3 8 -20 22 -26 25 -26
13z"/>
<path d="M7315 1010 c-3 -5 -1 -10 4 -10 6 0 11 5 11 10 0 6 -2 10 -4 10 -3 0
-8 -4 -11 -10z"/>
<path d="M1775 965 c0 -13 3 -21 8 -18 4 2 7 10 7 18 0 8 -3 16 -7 18 -5 3 -8
-5 -8 -18z"/>
<path d="M1890 870 c0 -5 5 -10 11 -10 5 0 7 5 4 10 -3 6 -8 10 -11 10 -2 0
-4 -4 -4 -10z"/>
<path d="M1930 870 c0 -5 5 -10 11 -10 5 0 7 5 4 10 -3 6 -8 10 -11 10 -2 0
-4 -4 -4 -10z"/>
<path d="M1970 830 c0 -5 5 -10 11 -10 5 0 7 5 4 10 -3 6 -8 10 -11 10 -2 0
-4 -4 -4 -10z"/>
<path d="M6960 791 c-8 -6 -17 -8 -20 -6 -4 2 -7 -2 -7 -10 0 -8 4 -15 9 -15
4 0 8 5 8 10 0 6 7 10 15 10 8 0 15 5 15 10 0 12 -1 12 -20 1z"/>
<path d="M2065 759 c-4 -6 -4 -13 -1 -16 3 -4 6 -1 6 6 0 7 5 9 12 5 7 -4 8
-3 4 4 -9 15 -13 15 -21 1z"/>
<path d="M6755 679 c-4 -6 -4 -13 -1 -16 3 -4 6 -1 6 6 0 7 5 9 12 5 7 -4 8
-3 4 4 -9 15 -13 15 -21 1z"/>
<path d="M2191 654 c0 -11 3 -14 6 -6 3 7 2 16 -1 19 -3 4 -6 -2 -5 -13z"/>
<path d="M2241 641 c-7 -5 -9 -11 -5 -14 5 -3 15 1 22 9 14 16 5 18 -17 5z"/>
<path d="M2261 614 c0 -11 3 -14 6 -6 3 7 2 16 -1 19 -3 4 -6 -2 -5 -13z"/>
<path d="M6605 579 c-11 -16 -1 -19 13 -3 7 8 8 14 3 14 -5 0 -13 -5 -16 -11z"/>
<path d="M6563 555 c0 -7 9 -13 19 -12 10 1 18 2 18 4 0 1 -8 7 -18 12 -14 7
-19 6 -19 -4z"/>
<path d="M6237 423 c-4 -3 -7 -11 -7 -17 0 -6 5 -5 12 2 6 6 9 14 7 17 -3 3
-9 2 -12 -2z"/>
<path d="M2790 350 c0 -5 5 -10 11 -10 5 0 7 5 4 10 -3 6 -8 10 -11 10 -2 0
-4 -4 -4 -10z"/>
<path d="M6070 339 c0 -5 5 -7 10 -4 6 3 10 8 10 11 0 2 -4 4 -10 4 -5 0 -10
-5 -10 -11z"/>
<path d="M3107 259 c7 -7 15 -10 18 -7 3 3 -2 9 -12 12 -14 6 -15 5 -6 -5z"/>
<path d="M3150 240 c0 -6 4 -9 9 -6 5 4 12 1 14 -4 3 -6 4 -5 3 2 -3 15 -26
23 -26 8z"/>
<path d="M5534 195 c-5 -11 -10 -13 -19 -5 -22 19 -26 -6 -4 -26 15 -14 20
-15 17 -4 -2 8 2 14 7 13 6 -1 12 7 12 18 2 23 -5 25 -13 4z"/>
<path d="M3910 37 c0 -8 7 -14 15 -14 11 0 12 4 4 14 -6 7 -13 13 -15 13 -2 0
-4 -6 -4 -13z"/>
<path d="M4973 17 c-3 -4 -2 -11 1 -14 3 -4 6 -1 6 7 0 9 3 10 14 1 10 -9 15
-8 19 2 5 14 -31 18 -40 4z"/>
<path d="M5035 21 c-3 -5 -2 -12 3 -15 5 -3 9 1 9 9 0 17 -3 19 -12 6z"/>
</g>
</svg>
